<svg width="41" height="37" viewBox="0 0 41 37" fill="none" xmlns="http://www.w3.org/2000/svg">
<path d="M3.34033 20.5009L3.34033 14.8188L37.6597 14.8188V20.5009H3.34033Z" fill="white"/>
<path d="M9.78687 27.099V15.4595L37.6804 15.4595V27.099H9.78687Z" fill="white"/>
<path d="M14.8696 29.5577V24.2407H37.6597V29.5577H14.8696Z" fill="white"/>
<path d="M17.2665 34.4683V27.8496H27.8385V34.4683H17.2665Z" fill="white"/>
<path d="M26.0477 32.0097V27.4985H32.7491V32.0097H26.0477Z" fill="white"/>
<path d="M20.0902 13.3243V6.62988L27.8384 6.62988V13.3243H20.0902Z" fill="white"/>
<path d="M24.1675 17.6565V8.97852H30.2972V17.6565H24.1675Z" fill="white"/>
<path d="M27.8522 17.2705V12.3599H32.7628V17.2705H27.8522Z" fill="white"/>
<path d="M15.5583 7.84183V2.53174L20.4828 2.53174V7.84183H15.5583Z" fill="white"/>
<path d="M17.0874 9.90811V3.76465L22.9209 3.76465V9.90811H17.0874Z" fill="white"/>
<path d="M35.2078 14.8186V12.3599H37.6666V14.8186H35.2078Z" fill="#020203"/>
<path d="M32.749 14.8186V12.3599H35.2078V14.8186H32.749Z" fill="#020203"/>
<path d="M30.2972 12.3601V9.90137H32.7559V12.3601H30.2972Z" fill="#020203"/>
<path d="M27.8384 9.90847V7.44971H30.2972V9.90847H27.8384Z" fill="#020203"/>
<path d="M25.3796 7.44948V4.99072H27.8384V7.44948H25.3796Z" fill="#020203"/>
<path d="M22.9277 7.44948V4.99072H25.3865V7.44948H22.9277Z" fill="#020203"/>
<path d="M20.469 4.9905V2.53174H22.9278V4.9905H20.469Z" fill="#020203"/>
<path d="M18.0103 2.53884V0.0800781L20.469 0.0800781V2.53884H18.0103Z" fill="#020203"/>
<path d="M15.5583 2.53884V0.0800781L18.0171 0.0800781V2.53884H15.5583Z" fill="#020203"/>
<path d="M13.0996 7.44948V4.99072H15.5584V7.44948H13.0996Z" fill="#020203"/>
<path d="M13.0996 4.9905V2.53174H15.5584V4.9905H13.0996Z" fill="#020203"/>
<path d="M18.0103 12.3601V9.90137H20.469V12.3601H18.0103Z" fill="#020203"/>
<path d="M15.5583 9.90847V7.44971H18.0171V9.90847H15.5583Z" fill="#020203"/>
<path d="M20.469 14.8186V12.3599H22.9278V14.8186H20.469Z" fill="#020203"/>
<path d="M18.0103 14.8186V12.3599H20.469V14.8186H18.0103Z" fill="#020203"/>
<path d="M22.9277 14.8186V12.3599H25.3865V14.8186H22.9277Z" fill="#020203"/>
<path d="M13.1134 14.8186V12.3599H15.5722V14.8186H13.1134Z" fill="#020203"/>
<path d="M10.6547 14.8186V12.3599H13.1134V14.8186H10.6547Z" fill="#020203"/>
<path d="M15.5721 14.8186V12.3599H18.0309V14.8186H15.5721Z" fill="#020203"/>
<path d="M5.74402 14.8186V12.3599H8.20278V14.8186H5.74402Z" fill="#020203"/>
<path d="M3.28528 14.8186V12.3599H5.74404V14.8186H3.28528Z" fill="#020203"/>
<path d="M8.20276 14.8186V12.3599H10.6615V14.8186H8.20276Z" fill="#020203"/>
<path d="M0.833374 19.7293L0.833374 17.2705H3.29213V19.7293H0.833374Z" fill="#020203"/>
<path d="M0.833374 17.2776L0.833374 14.8188H3.29213V17.2776H0.833374Z" fill="#020203"/>
<path d="M13.1685 22.1883V19.7295H15.6272V22.1883H13.1685Z" fill="#020203"/>
<path d="M10.7097 22.1883V19.7295H13.1685V22.1883H10.7097Z" fill="#020203"/>
<path d="M15.6204 22.1883V19.7295H18.0791V22.1883H15.6204Z" fill="#020203"/>
<path d="M5.66138 22.1883V19.7295H8.25788V22.1883H5.66138Z" fill="#020203"/>
<path d="M3.28528 22.1883V19.7295H5.74404V22.1883H3.28528Z" fill="#020203"/>
<path d="M8.25781 22.1883V19.7295H10.7166V22.1883H8.25781Z" fill="#020203"/>
<path d="M8.20276 27.0989V24.6401H10.6615V27.0989H8.20276Z" fill="#020203"/>
<path d="M8.20276 24.6472V22.1885H10.6615V24.6472H8.20276Z" fill="#020203"/>
<path d="M13.1134 27.0989V24.6401H15.5722V27.0989H13.1134Z" fill="#020203"/>
<path d="M10.6547 27.0989V24.6401H13.1134V27.0989H10.6547Z" fill="#020203"/>
<path d="M15.5721 27.0989V24.6401H18.0309V27.0989H15.5721Z" fill="#020203"/>
<path d="M13.1134 32.0164V29.5576H15.5722V32.0164H13.1134Z" fill="#020203"/>
<path d="M13.1134 29.5579V27.0991H15.5722V29.5579H13.1134Z" fill="#020203"/>
<path d="M18.024 32.0164V29.5576H20.4828V32.0164H18.024Z" fill="#020203"/>
<path d="M15.5721 32.0164V29.5576H18.0309V32.0164H15.5721Z" fill="#020203"/>
<path d="M20.4828 32.0164V29.5576H22.9415V32.0164H20.4828Z" fill="#020203"/>
<path d="M15.5721 36.927V34.4683H18.0309V36.927H15.5721Z" fill="#020203"/>
<path d="M15.5721 34.4685V32.0098H18.0309V34.4685H15.5721Z" fill="#020203"/>
<path d="M20.4828 36.927V34.4683H22.9415V36.927H20.4828Z" fill="#020203"/>
<path d="M18.024 36.927V34.4683H20.4828V36.927H18.024Z" fill="#020203"/>
<path d="M22.9415 36.927V34.4683H25.4003V36.927H22.9415Z" fill="#020203"/>
<path d="M25.3934 36.927V34.4683H27.8522V36.927H25.3934Z" fill="#020203"/>
<path d="M27.8522 34.4685V32.0098H30.3109V34.4685H27.8522Z" fill="#020203"/>
<path d="M30.311 34.4685V32.0098H32.7697V34.4685H30.311Z" fill="#020203"/>
<path d="M32.7628 32.0164V29.5576H35.2216V32.0164H32.7628Z" fill="#020203"/>
<path d="M35.2216 32.0164V29.5576H37.6803V32.0164H35.2216Z" fill="#020203"/>
<path d="M37.6597 19.7293V17.2705H40.1184V19.7293H37.6597Z" fill="#020203"/>
<path d="M37.6597 17.2776V14.8188H40.1184V17.2776H37.6597Z" fill="#020203"/>
<path d="M37.6597 24.6472V22.1885H40.1184V24.6472H37.6597Z" fill="#020203"/>
<path d="M37.6597 22.1883V19.7295H40.1184V22.1883H37.6597Z" fill="#020203"/>
<path d="M37.6597 29.5579V27.0991H40.1184V29.5579H37.6597Z" fill="#020203"/>
<path d="M37.6597 27.0989V24.6401H40.1184V27.0989H37.6597Z" fill="#020203"/>
</svg>
