<svg width="33" height="32" viewBox="0 0 33 32" fill="none" xmlns="http://www.w3.org/2000/svg">
<path d="M2.64087 9.88776L2.64087 4.90137H7.62726V9.88776H2.64087Z" fill="white"/>
<path d="M5.29248 29.8813L5.29248 5.32129L17.3797 5.32129V29.8813H5.29248Z" fill="white"/>
<path d="M15.8369 27.2917L15.8369 4.40527H22.2972V27.2917H15.8369Z" fill="white"/>
<path d="M12.469 8.00774V2.44971L19.8384 2.44971V8.00774H12.469Z" fill="white"/>
<path d="M3.72217 21.6307L3.72217 9.26807H5.78835L5.78835 21.6307H3.72217Z" fill="white"/>
<path d="M2.64087 17.1811L2.64087 12.2705H6.15338V17.1811H2.64087Z" fill="white"/>
<path d="M2.64087 24.5508L2.64087 19.6401H6.65616V24.5508H2.64087Z" fill="white"/>
<path d="M4.85156 29.4685V26.5552H6.60093V29.4685H4.85156Z" fill="white"/>
<path d="M21.4915 25.1773V6.82959H24.7491V25.1773H21.4915Z" fill="white"/>
<path d="M24.1912 24.5576V9.81885H29.6597V24.5576H24.1912Z" fill="white"/>
<path d="M27.2078 9.81911V7.36035H29.6665V9.81911H27.2078Z" fill="#020203"/>
<path d="M24.749 9.81911V7.36035H27.2078V9.81911H24.749Z" fill="#020203"/>
<path d="M22.2971 7.36013V4.90137H24.7559V7.36013H22.2971Z" fill="#020203"/>
<path d="M19.8384 4.90847V2.44971H22.2971V4.90847H19.8384Z" fill="#020203"/>
<path d="M17.3796 2.44948V-0.00927734L19.8384 -0.00927734V2.44948H17.3796Z" fill="#020203"/>
<path d="M14.9277 2.44948V-0.00927734L17.3865 -0.00927734V2.44948H14.9277Z" fill="#020203"/>
<path d="M12.469 2.44948V-0.00927734L14.9278 -0.00927734V2.44948H12.469Z" fill="#020203"/>
<path d="M10.0103 4.90847V2.44971H12.469V4.90847H10.0103Z" fill="#020203"/>
<path d="M10.0103 7.36013V4.90137H12.469V7.36013H10.0103Z" fill="#020203"/>
<path d="M7.55835 7.36013V4.90137H10.0171V7.36013H7.55835Z" fill="#020203"/>
<path d="M5.09961 4.90847V2.44971H7.55837V4.90847H5.09961Z" fill="#020203"/>
<path d="M2.64087 4.90847V2.44971H5.09963V4.90847H2.64087Z" fill="#020203"/>
<path d="M0.188965 7.36013L0.188965 4.90137H2.64773V7.36013H0.188965Z" fill="#020203"/>
<path d="M0.188965 9.81911L0.188965 7.36035H2.64773V9.81911H0.188965Z" fill="#020203"/>
<path d="M2.64087 12.2776V9.81885H5.09963V12.2776H2.64087Z" fill="#020203"/>
<path d="M0.188965 14.7293L0.188965 12.2705H2.64773V14.7293H0.188965Z" fill="#020203"/>
<path d="M0.188965 17.1883L0.188965 14.7295H2.64773V17.1883H0.188965Z" fill="#020203"/>
<path d="M2.64087 19.6472V17.1885H5.09963V19.6472H2.64087Z" fill="#020203"/>
<path d="M0.188965 22.0989L0.188965 19.6401H2.64773V22.0989H0.188965Z" fill="#020203"/>
<path d="M0.188965 24.5579L0.188965 22.0991H2.64773V24.5579H0.188965Z" fill="#020203"/>
<path d="M2.64087 27.0164V24.5576H5.09963V27.0164H2.64087Z" fill="#020203"/>
<path d="M2.64087 29.4685V27.0098H5.09963V29.4685H2.64087Z" fill="#020203"/>
<path d="M5.09961 27.0164V24.5576H7.55837V27.0164H5.09961Z" fill="#020203"/>
<path d="M10.0103 31.927V29.4683H12.469V31.927H10.0103Z" fill="#020203"/>
<path d="M7.55835 31.927V29.4683H10.0171V31.927H7.55835Z" fill="#020203"/>
<path d="M5.09961 31.927V29.4683H7.55837V31.927H5.09961Z" fill="#020203"/>
<path d="M14.9277 31.927V29.4683H17.3865V31.927H14.9277Z" fill="#020203"/>
<path d="M12.469 31.927V29.4683H14.9278V31.927H12.469Z" fill="#020203"/>
<path d="M19.8384 29.4685V27.0098H22.2971V29.4685H19.8384Z" fill="#020203"/>
<path d="M17.3796 29.4685V27.0098H19.8384V29.4685H17.3796Z" fill="#020203"/>
<path d="M22.2971 27.0164V24.5576H24.7559V27.0164H22.2971Z" fill="#020203"/>
<path d="M27.2078 27.0164V24.5576H29.6665V27.0164H27.2078Z" fill="#020203"/>
<path d="M24.749 27.0164V24.5576H27.2078V27.0164H24.749Z" fill="#020203"/>
<path d="M29.6597 14.7293V12.2705H32.1184V14.7293H29.6597Z" fill="#020203"/>
<path d="M29.6597 12.2776V9.81885H32.1184V12.2776H29.6597Z" fill="#020203"/>
<path d="M29.6597 19.6472V17.1885H32.1184V19.6472H29.6597Z" fill="#020203"/>
<path d="M29.6597 17.1883V14.7295H32.1184V17.1883H29.6597Z" fill="#020203"/>
<path d="M29.6597 24.5579V22.0991H32.1184V24.5579H29.6597Z" fill="#020203"/>
<path d="M29.6597 22.0989V19.6401H32.1184V22.0989H29.6597Z" fill="#020203"/>
</svg>
