<svg width="41" height="37" viewBox="0 0 41 37" fill="none" xmlns="http://www.w3.org/2000/svg">
<path d="M37.6597 20.5009V14.8188L3.34034 14.8188V20.5009H37.6597Z" fill="white"/>
<path d="M31.2131 27.099V15.4595L3.31964 15.4595V27.099H31.2131Z" fill="white"/>
<path d="M26.1304 29.5577V24.2407H3.34035V29.5577H26.1304Z" fill="white"/>
<path d="M23.7336 34.4683V27.8496H13.1616V34.4683H23.7336Z" fill="white"/>
<path d="M14.9523 32.0097V27.4985H8.25094V32.0097H14.9523Z" fill="white"/>
<path d="M20.9098 13.3243V6.62988L13.1616 6.62988V13.3243H20.9098Z" fill="white"/>
<path d="M16.8325 17.6565V8.97852H10.7028V17.6565H16.8325Z" fill="white"/>
<path d="M13.1478 17.2705V12.3599H8.23719V17.2705H13.1478Z" fill="white"/>
<path d="M25.4416 7.84183V2.53174L20.5172 2.53174V7.84183H25.4416Z" fill="white"/>
<path d="M23.9127 9.90811V3.76465L18.0791 3.76465V9.90811H23.9127Z" fill="white"/>
<path d="M5.79218 14.8186V12.3599H3.33341V14.8186H5.79218Z" fill="#020203"/>
<path d="M8.25098 14.8186V12.3599H5.79222V14.8186H8.25098Z" fill="#020203"/>
<path d="M10.7028 12.3601V9.90137H8.24406V12.3601H10.7028Z" fill="#020203"/>
<path d="M13.1616 9.90847V7.44971H10.7028V9.90847H13.1616Z" fill="#020203"/>
<path d="M15.6204 7.44948V4.99072H13.1616V7.44948H15.6204Z" fill="#020203"/>
<path d="M18.0722 7.44948V4.99072H15.6134V7.44948H18.0722Z" fill="#020203"/>
<path d="M20.531 4.9905V2.53174H18.0722V4.9905H20.531Z" fill="#020203"/>
<path d="M22.9897 2.53884V0.0800781L20.531 0.0800781V2.53884H22.9897Z" fill="#020203"/>
<path d="M25.4416 2.53884V0.0800781L22.9828 0.0800781V2.53884H25.4416Z" fill="#020203"/>
<path d="M27.9004 7.44948V4.99072H25.4416V7.44948H27.9004Z" fill="#020203"/>
<path d="M27.9004 4.9905V2.53174H25.4416V4.9905H27.9004Z" fill="#020203"/>
<path d="M22.9897 12.3601V9.90137H20.531V12.3601H22.9897Z" fill="#020203"/>
<path d="M25.4416 9.90847V7.44971H22.9828V9.90847H25.4416Z" fill="#020203"/>
<path d="M20.531 14.8186V12.3599H18.0722V14.8186H20.531Z" fill="#020203"/>
<path d="M22.9897 14.8186V12.3599H20.531V14.8186H22.9897Z" fill="#020203"/>
<path d="M18.0722 14.8186V12.3599H15.6134V14.8186H18.0722Z" fill="#020203"/>
<path d="M27.8866 14.8186V12.3599H25.4278V14.8186H27.8866Z" fill="#020203"/>
<path d="M30.3453 14.8186V12.3599H27.8866V14.8186H30.3453Z" fill="#020203"/>
<path d="M25.4279 14.8186V12.3599H22.9691V14.8186H25.4279Z" fill="#020203"/>
<path d="M35.256 14.8186V12.3599H32.7972V14.8186H35.256Z" fill="#020203"/>
<path d="M37.7148 14.8186V12.3599H35.256V14.8186H37.7148Z" fill="#020203"/>
<path d="M32.7972 14.8186V12.3599H30.3385V14.8186H32.7972Z" fill="#020203"/>
<path d="M40.1666 19.7293V17.2705H37.7079V19.7293H40.1666Z" fill="#020203"/>
<path d="M40.1666 17.2776V14.8188H37.7079V17.2776H40.1666Z" fill="#020203"/>
<path d="M27.8315 22.1883V19.7295H25.3727V22.1883H27.8315Z" fill="#020203"/>
<path d="M30.2903 22.1883V19.7295H27.8315V22.1883H30.2903Z" fill="#020203"/>
<path d="M25.3796 22.1883V19.7295H22.9209V22.1883H25.3796Z" fill="#020203"/>
<path d="M35.3386 22.1883V19.7295H32.7421V22.1883H35.3386Z" fill="#020203"/>
<path d="M37.7148 22.1883V19.7295H35.256V22.1883H37.7148Z" fill="#020203"/>
<path d="M32.7421 22.1883V19.7295H30.2834V22.1883H32.7421Z" fill="#020203"/>
<path d="M32.7972 27.0989V24.6401H30.3385V27.0989H32.7972Z" fill="#020203"/>
<path d="M32.7972 24.6472V22.1885H30.3385V24.6472H32.7972Z" fill="#020203"/>
<path d="M27.8866 27.0989V24.6401H25.4278V27.0989H27.8866Z" fill="#020203"/>
<path d="M30.3453 27.0989V24.6401H27.8866V27.0989H30.3453Z" fill="#020203"/>
<path d="M25.4279 27.0989V24.6401H22.9691V27.0989H25.4279Z" fill="#020203"/>
<path d="M27.8866 32.0164V29.5576H25.4278V32.0164H27.8866Z" fill="#020203"/>
<path d="M27.8866 29.5579V27.0991H25.4278V29.5579H27.8866Z" fill="#020203"/>
<path d="M22.976 32.0164V29.5576H20.5172V32.0164H22.976Z" fill="#020203"/>
<path d="M25.4279 32.0164V29.5576H22.9691V32.0164H25.4279Z" fill="#020203"/>
<path d="M20.5172 32.0164V29.5576H18.0585V32.0164H20.5172Z" fill="#020203"/>
<path d="M25.4279 36.927V34.4683H22.9691V36.927H25.4279Z" fill="#020203"/>
<path d="M25.4279 34.4685V32.0098H22.9691V34.4685H25.4279Z" fill="#020203"/>
<path d="M20.5172 36.927V34.4683H18.0585V36.927H20.5172Z" fill="#020203"/>
<path d="M22.976 36.927V34.4683H20.5172V36.927H22.976Z" fill="#020203"/>
<path d="M18.0585 36.927V34.4683H15.5997V36.927H18.0585Z" fill="#020203"/>
<path d="M15.6066 36.927V34.4683H13.1478V36.927H15.6066Z" fill="#020203"/>
<path d="M13.1478 34.4685V32.0098H10.6891V34.4685H13.1478Z" fill="#020203"/>
<path d="M10.689 34.4685V32.0098H8.23027V34.4685H10.689Z" fill="#020203"/>
<path d="M8.23718 32.0164V29.5576H5.77842V32.0164H8.23718Z" fill="#020203"/>
<path d="M5.77844 32.0164V29.5576H3.31968V32.0164H5.77844Z" fill="#020203"/>
<path d="M3.34033 19.7293V17.2705H0.881571V19.7293H3.34033Z" fill="#020203"/>
<path d="M3.34033 17.2776V14.8188H0.881571V17.2776H3.34033Z" fill="#020203"/>
<path d="M3.34033 24.6472V22.1885H0.881571V24.6472H3.34033Z" fill="#020203"/>
<path d="M3.34033 22.1883V19.7295H0.881571V22.1883H3.34033Z" fill="#020203"/>
<path d="M3.34033 29.5579V27.0991H0.881571V29.5579H3.34033Z" fill="#020203"/>
<path d="M3.34033 27.0989V24.6401H0.881571V27.0989H3.34033Z" fill="#020203"/>
</svg>
