<svg width="45" height="35" viewBox="0 0 45 35" fill="none" xmlns="http://www.w3.org/2000/svg">
<path d="M3.58083 31.4092H1.85742V33.1559H3.58083V31.4092Z" fill="#9F9F9D"/>
<path d="M5.29787 31.4092H3.57446V33.1559H5.29787V31.4092Z" fill="#9F9F9D"/>
<path d="M7.02126 31.4092H5.29785V33.1559H7.02126V31.4092Z" fill="#9C9B9A"/>
<path d="M8.7383 31.4092H7.01489V33.1559H8.7383V31.4092Z" fill="#9A9998"/>
<path d="M10.4617 31.4092H8.73828V33.1559H10.4617V31.4092Z" fill="#9D9C99"/>
<path d="M12.1787 31.4092H10.4553V33.1559H12.1787V31.4092Z" fill="#9E9E9B"/>
<path d="M13.9021 31.4092H12.1787V33.1559H13.9021V31.4092Z" fill="#9E9E9B"/>
<path d="M15.6192 31.4092H13.8958V33.1559H15.6192V31.4092Z" fill="#9D9D9B"/>
<path d="M17.3425 31.4092H15.6191V33.1559H17.3425V31.4092Z" fill="#9B9C99"/>
<path d="M19.0596 31.4092H17.3362V33.1559H19.0596V31.4092Z" fill="#9D9C99"/>
<path d="M20.783 31.4092H19.0596V33.1559H20.783V31.4092Z" fill="#9B9C99"/>
<path d="M22.5 31.4092H20.7766V33.1559H22.5V31.4092Z" fill="#9E9E9B"/>
<path d="M24.2234 31.4092H22.5V33.1559H24.2234V31.4092Z" fill="#9D9C9B"/>
<path d="M25.9468 31.4092H24.2234V33.1559H25.9468V31.4092Z" fill="#9E9D9C"/>
<path d="M27.6638 31.4092H25.9404V33.1559H27.6638V31.4092Z" fill="#999998"/>
<path d="M29.3872 31.4092H27.6638V33.1559H29.3872V31.4092Z" fill="#999898"/>
<path d="M31.1043 31.4092H29.3809V33.1559H31.1043V31.4092Z" fill="#969695"/>
<path d="M32.8277 31.4092H31.1042V33.1559H32.8277V31.4092Z" fill="#939493"/>
<path d="M34.5447 31.4092H32.8213V33.1559H34.5447V31.4092Z" fill="#959594"/>
<path d="M36.2681 31.4092H34.5447V33.1559H36.2681V31.4092Z" fill="#959594"/>
<path d="M37.9851 31.4092H36.2617V33.1559H37.9851V31.4092Z" fill="#8F8D8F"/>
<path d="M39.7085 31.4092H37.9851V33.1559H39.7085V31.4092Z" fill="#8C8C8D"/>
<path d="M41.4256 31.4092H39.7021V33.1559H41.4256V31.4092Z" fill="#8C8C8D"/>
<path d="M43.1489 31.4092H41.4255V33.1559H43.1489V31.4092Z" fill="#8B8C8B"/>
<path d="M3.58083 29.6631H1.85742V31.4099H3.58083V29.6631Z" fill="#9F9F9D"/>
<path d="M5.29787 29.6631H3.57446V31.4099H5.29787V29.6631Z" fill="#A2A09D"/>
<path d="M7.02126 29.6631H5.29785V31.4099H7.02126V29.6631Z" fill="#A19F9B"/>
<path d="M8.7383 29.6631H7.01489V31.4099H8.7383V29.6631Z" fill="#A19F9B"/>
<path d="M10.4617 29.6631H8.73828V31.4099H10.4617V29.6631Z" fill="#A4A39F"/>
<path d="M12.1787 29.6631H10.4553V31.4099H12.1787V29.6631Z" fill="#A6A4A0"/>
<path d="M13.9021 29.6631H12.1787V31.4099H13.9021V29.6631Z" fill="#A6A6A0"/>
<path d="M15.6192 29.6631H13.8958V31.4099H15.6192V29.6631Z" fill="#A8A7A3"/>
<path d="M17.3425 29.6631H15.6191V31.4099H17.3425V29.6631Z" fill="#A6A5A1"/>
<path d="M19.0596 29.6631H17.3362V31.4099H19.0596V29.6631Z" fill="#A6A59F"/>
<path d="M20.783 29.6631H19.0596V31.4099H20.783V29.6631Z" fill="#A6A5A1"/>
<path d="M22.5 29.6631H20.7766V31.4099H22.5V29.6631Z" fill="#A3A2A0"/>
<path d="M24.2234 29.6631H22.5V31.4099H24.2234V29.6631Z" fill="#A5A4A2"/>
<path d="M25.9468 29.6631H24.2234V31.4099H25.9468V29.6631Z" fill="#A8A7A6"/>
<path d="M27.6638 29.6631H25.9404V31.4099H27.6638V29.6631Z" fill="#A1A19F"/>
<path d="M29.3872 29.6631H27.6638V31.4099H29.3872V29.6631Z" fill="#B2B3AF"/>
<path d="M31.1043 29.6631H29.3809V31.4099H31.1043V29.6631Z" fill="#B3B3B2"/>
<path d="M32.8277 29.6631H31.1042V31.4099H32.8277V29.6631Z" fill="#A1A09F"/>
<path d="M34.5447 29.6631H32.8213V31.4099H34.5447V29.6631Z" fill="#B2B3AF"/>
<path d="M36.2681 29.6631H34.5447V31.4099H36.2681V29.6631Z" fill="#9E9C9A"/>
<path d="M37.9851 29.6631H36.2617V31.4099H37.9851V29.6631Z" fill="#969594"/>
<path d="M39.7085 29.6631H37.9851V31.4099H39.7085V29.6631Z" fill="#90908F"/>
<path d="M41.4256 29.6631H39.7021V31.4099H41.4256V29.6631Z" fill="#90908F"/>
<path d="M43.1489 29.6631H41.4255V31.4099H43.1489V29.6631Z" fill="#A2A29E"/>
<path d="M3.58083 27.9609H1.85742V29.7077H3.58083V27.9609Z" fill="#9D9C9C"/>
<path d="M5.29787 27.9609H3.57446V29.7077H5.29787V27.9609Z" fill="#9F9E9A"/>
<path d="M7.02126 27.9609H5.29785V29.7077H7.02126V27.9609Z" fill="#A09E97"/>
<path d="M8.7383 27.9609H7.01489V29.7077H8.7383V27.9609Z" fill="#A5A39C"/>
<path d="M10.4617 27.9609H8.73828V29.7077H10.4617V27.9609Z" fill="#A8A8A0"/>
<path d="M12.1787 27.9609H10.4553V29.7077H12.1787V27.9609Z" fill="#ABA9A3"/>
<path d="M13.9021 27.9609H12.1787V29.7077H13.9021V27.9609Z" fill="#ADADA9"/>
<path d="M15.6192 27.9609H13.8958V29.7077H15.6192V27.9609Z" fill="#B5B5AF"/>
<path d="M17.3425 27.9609H15.6191V29.7077H17.3425V27.9609Z" fill="#B4B4AF"/>
<path d="M19.0596 27.9609H17.3362V29.7077H19.0596V27.9609Z" fill="#B7B7B0"/>
<path d="M20.783 27.9609H19.0596V29.7077H20.783V27.9609Z" fill="#B6B6B2"/>
<path d="M22.5 27.9609H20.7766V29.7077H22.5V27.9609Z" fill="#B5B5B1"/>
<path d="M24.2234 27.9609H22.5V29.7077H24.2234V27.9609Z" fill="#B6B6B3"/>
<path d="M25.9468 27.9609H24.2234V29.7077H25.9468V27.9609Z" fill="#BABAB7"/>
<path d="M27.6638 27.9609H25.9404V29.7077H27.6638V27.9609Z" fill="#C4C4C0"/>
<path d="M29.3872 27.9609H27.6638V29.7077H29.3872V27.9609Z" fill="#AAAAA7"/>
<path d="M31.1043 27.9609H29.3809V29.7077H31.1043V27.9609Z" fill="#AAAAA8"/>
<path d="M32.8277 27.9609H31.1042V29.7077H32.8277V27.9609Z" fill="#A9A8A8"/>
<path d="M34.5447 27.9609H32.8213V29.7077H34.5447V27.9609Z" fill="#B6B6B3"/>
<path d="M36.2681 27.9609H34.5447V29.7077H36.2681V27.9609Z" fill="#B2B1AF"/>
<path d="M37.9851 27.9609H36.2617V29.7077H37.9851V27.9609Z" fill="#ACACAA"/>
<path d="M39.7085 27.9609H37.9851V29.7077H39.7085V27.9609Z" fill="#A8A8A5"/>
<path d="M41.4256 27.9609H39.7021V29.7077H41.4256V27.9609Z" fill="#B2B3AE"/>
<path d="M43.1489 27.9609H41.4255V29.7077H43.1489V27.9609Z" fill="#838481"/>
<path d="M3.58083 26.2148H1.85742V27.9616H3.58083V26.2148Z" fill="#575756"/>
<path d="M5.29787 26.2148H3.57446V27.9616H5.29787V26.2148Z" fill="#5F5F5D"/>
<path d="M7.02126 26.2148H5.29785V27.9616H7.02126V26.2148Z" fill="#636361"/>
<path d="M8.7383 26.2148H7.01489V27.9616H8.7383V26.2148Z" fill="#6E6D6B"/>
<path d="M10.4617 26.2148H8.73828V27.9616H10.4617V26.2148Z" fill="#70706D"/>
<path d="M12.1787 26.2148H10.4553V27.9616H12.1787V26.2148Z" fill="#6C6C6A"/>
<path d="M13.9021 26.2148H12.1787V27.9616H13.9021V26.2148Z" fill="#6E6D6E"/>
<path d="M15.6192 26.2148H13.8958V27.9616H15.6192V26.2148Z" fill="#6E6D6D"/>
<path d="M17.3425 26.2148H15.6191V27.9616H17.3425V26.2148Z" fill="#81817F"/>
<path d="M19.0596 26.2148H17.3362V27.9616H19.0596V26.2148Z" fill="#7F7F7D"/>
<path d="M20.783 26.2148H19.0596V27.9616H20.783V26.2148Z" fill="#727170"/>
<path d="M22.5 26.2148H20.7766V27.9616H22.5V26.2148Z" fill="#727070"/>
<path d="M24.2234 26.2148H22.5V27.9616H24.2234V26.2148Z" fill="#6E6D6C"/>
<path d="M25.9468 26.2148H24.2234V27.9616H25.9468V26.2148Z" fill="#6B6B6A"/>
<path d="M27.6638 26.2148H25.9404V27.9616H27.6638V26.2148Z" fill="#696968"/>
<path d="M29.3872 26.2148H27.6638V27.9616H29.3872V26.2148Z" fill="#72706F"/>
<path d="M31.1043 26.2148H29.3809V27.9616H31.1043V26.2148Z" fill="#6A6A69"/>
<path d="M32.8277 26.2148H31.1042V27.9616H32.8277V26.2148Z" fill="#6B6B6B"/>
<path d="M34.5447 26.2148H32.8213V27.9616H34.5447V26.2148Z" fill="#777776"/>
<path d="M36.2681 26.2148H34.5447V27.9616H36.2681V26.2148Z" fill="#7D7C7B"/>
<path d="M37.9851 26.2148H36.2617V27.9616H37.9851V26.2148Z" fill="#7F7F7D"/>
<path d="M39.7085 26.2148H37.9851V27.9616H39.7085V26.2148Z" fill="#898987"/>
<path d="M41.4256 26.2148H39.7021V27.9616H41.4256V26.2148Z" fill="#7D7D7A"/>
<path d="M43.1489 26.2148H41.4255V27.9616H43.1489V26.2148Z" fill="#434242"/>
<path d="M8.73195 24.4873H7.00854V26.2341H8.73195V24.4873Z" fill="#93908E"/>
<path d="M10.4553 24.4873H8.73193V26.2341H10.4553V24.4873Z" fill="#A19D9B"/>
<path d="M12.1724 24.4873H10.449V26.2341H12.1724V24.4873Z" fill="#A29D9B"/>
<path d="M13.8958 24.4873H12.1724V26.2341H13.8958V24.4873Z" fill="#A7A1A0"/>
<path d="M15.6128 24.4873H13.8894V26.2341H15.6128V24.4873Z" fill="#A7A1A0"/>
<path d="M17.3362 24.4873H15.6128V26.2341H17.3362V24.4873Z" fill="#AAA4A1"/>
<path d="M19.0532 24.4873H17.3298V26.2341H19.0532V24.4873Z" fill="#AAA4A1"/>
<path d="M20.7766 24.4873H19.0532V26.2341H20.7766V24.4873Z" fill="#A7A29F"/>
<path d="M22.4937 24.4873H20.7703V26.2341H22.4937V24.4873Z" fill="#ABA6A4"/>
<path d="M24.2171 24.4873H22.4937V26.2341H24.2171V24.4873Z" fill="#A7A4A2"/>
<path d="M25.9341 24.4873H24.2107V26.2341H25.9341V24.4873Z" fill="#A6A4A1"/>
<path d="M27.6575 24.4873H25.9341V26.2341H27.6575V24.4873Z" fill="#A5A3A1"/>
<path d="M29.3745 24.4873H27.6511V26.2341H29.3745V24.4873Z" fill="#9F9D9B"/>
<path d="M31.0979 24.4873H29.3745V26.2341H31.0979V24.4873Z" fill="#9D9A99"/>
<path d="M32.8148 24.4873H31.0914V26.2341H32.8148V24.4873Z" fill="#9D9A99"/>
<path d="M34.5383 24.4873H32.8149V26.2341H34.5383V24.4873Z" fill="#9B9897"/>
<path d="M36.2617 24.4873H34.5383V26.2341H36.2617V24.4873Z" fill="#969191"/>
<path d="M8.73195 22.7402H7.00854V24.487H8.73195V22.7402Z" fill="#A7A2A1"/>
<path d="M10.4553 22.7402H8.73193V24.487H10.4553V22.7402Z" fill="#A9A4A3"/>
<path d="M12.1724 22.7402H10.449V24.487H12.1724V22.7402Z" fill="#A7A4A2"/>
<path d="M13.8958 22.7402H12.1724V24.487H13.8958V22.7402Z" fill="#AAA5A5"/>
<path d="M15.6128 22.7402H13.8894V24.487H15.6128V22.7402Z" fill="#A8A7A7"/>
<path d="M17.3362 22.7402H15.6128V24.487H17.3362V22.7402Z" fill="#AAA8A8"/>
<path d="M19.0532 22.7402H17.3298V24.487H19.0532V22.7402Z" fill="#ACA8A8"/>
<path d="M20.7766 22.7402H19.0532V24.487H20.7766V22.7402Z" fill="#AAA9A8"/>
<path d="M22.4937 22.7402H20.7703V24.487H22.4937V22.7402Z" fill="#AAA8A8"/>
<path d="M24.2171 22.7402H22.4937V24.487H24.2171V22.7402Z" fill="#A8A7A7"/>
<path d="M25.9341 22.7402H24.2107V24.487H25.9341V22.7402Z" fill="#A8A5A4"/>
<path d="M27.6575 22.7402H25.9341V24.487H27.6575V22.7402Z" fill="#A4A3A1"/>
<path d="M29.3745 22.7402H27.6511V24.487H29.3745V22.7402Z" fill="#A29E9E"/>
<path d="M31.0979 22.7402H29.3745V24.487H31.0979V22.7402Z" fill="#A09C9B"/>
<path d="M32.8148 22.7402H31.0914V24.487H32.8148V22.7402Z" fill="#9D9A9A"/>
<path d="M34.5383 22.7402H32.8149V24.487H34.5383V22.7402Z" fill="#9C9998"/>
<path d="M36.2617 22.7402H34.5383V24.487H36.2617V22.7402Z" fill="#9B9897"/>
<path d="M8.73195 21H7.00854V22.7468H8.73195V21Z" fill="#ABA5A5"/>
<path d="M10.4553 21H8.73193V22.7468H10.4553V21Z" fill="#716F70"/>
<path d="M12.1724 21H10.449V22.7468H12.1724V21Z" fill="#282933"/>
<path d="M13.8958 21H12.1724V22.7468H13.8958V21Z" fill="#2B2C3A"/>
<path d="M15.6128 21H13.8894V22.7468H15.6128V21Z" fill="#2E2E4B"/>
<path d="M17.3362 21H15.6128V22.7468H17.3362V21Z" fill="#2C2D41"/>
<path d="M19.0532 21H17.3298V22.7468H19.0532V21Z" fill="#2A2B3B"/>
<path d="M20.7766 21H19.0532V22.7468H20.7766V21Z" fill="#2C2D48"/>
<path d="M22.4937 21H20.7703V22.7468H22.4937V21Z" fill="#2E325E"/>
<path d="M24.2171 21H22.4937V22.7468H24.2171V21Z" fill="#2F3883"/>
<path d="M25.9341 21H24.2107V22.7468H25.9341V21Z" fill="#2D3477"/>
<path d="M27.6575 21H25.9341V22.7468H27.6575V21Z" fill="#2C2D4F"/>
<path d="M29.3745 21H27.6511V22.7468H29.3745V21Z" fill="#26272C"/>
<path d="M31.0979 21H29.3745V22.7468H31.0979V21Z" fill="#24252E"/>
<path d="M32.8148 21H31.0914V22.7468H32.8148V21Z" fill="#1D1E24"/>
<path d="M34.5383 21H32.8149V22.7468H34.5383V21Z" fill="#4D4E4F"/>
<path d="M36.2617 21H34.5383V22.7468H36.2617V21Z" fill="#A09A95"/>
<path d="M8.73195 19.2529H7.00854V20.9997H8.73195V19.2529Z" fill="#AFA8A7"/>
<path d="M10.4553 19.2529H8.73193V20.9997H10.4553V19.2529Z" fill="#6B6A6B"/>
<path d="M12.1724 19.2529H10.449V20.9997H12.1724V19.2529Z" fill="#1B1C27"/>
<path d="M13.8958 19.2529H12.1724V20.9997H13.8958V19.2529Z" fill="#1D1D35"/>
<path d="M15.6128 19.2529H13.8894V20.9997H15.6128V19.2529Z" fill="#1D1C33"/>
<path d="M17.3362 19.2529H15.6128V20.9997H17.3362V19.2529Z" fill="#1B1A30"/>
<path d="M19.0532 19.2529H17.3298V20.9997H19.0532V19.2529Z" fill="#1C1D3A"/>
<path d="M20.7766 19.2529H19.0532V20.9997H20.7766V19.2529Z" fill="#292B5F"/>
<path d="M22.4937 19.2529H20.7703V20.9997H22.4937V19.2529Z" fill="#27316F"/>
<path d="M24.2171 19.2529H22.4937V20.9997H24.2171V19.2529Z" fill="#2A2E65"/>
<path d="M25.9341 19.2529H24.2107V20.9997H25.9341V19.2529Z" fill="#272957"/>
<path d="M27.6575 19.2529H25.9341V20.9997H27.6575V19.2529Z" fill="#212348"/>
<path d="M29.3745 19.2529H27.6511V20.9997H29.3745V19.2529Z" fill="#141421"/>
<path d="M31.0979 19.2529H29.3745V20.9997H31.0979V19.2529Z" fill="#141421"/>
<path d="M32.8148 19.2529H31.0914V20.9997H32.8148V19.2529Z" fill="#12131E"/>
<path d="M34.5383 19.2529H32.8149V20.9997H34.5383V19.2529Z" fill="#464649"/>
<path d="M36.2617 19.2529H34.5383V20.9997H36.2617V19.2529Z" fill="#A09A95"/>
<path d="M8.73195 17.5127H7.00854V19.2595H8.73195V17.5127Z" fill="#B1ACAB"/>
<path d="M10.4553 17.5127H8.73193V19.2595H10.4553V17.5127Z" fill="#68666C"/>
<path d="M12.1724 17.5127H10.449V19.2595H12.1724V17.5127Z" fill="#1D1E31"/>
<path d="M13.8958 17.5127H12.1724V19.2595H13.8958V17.5127Z" fill="#20203B"/>
<path d="M15.6128 17.5127H13.8894V19.2595H15.6128V17.5127Z" fill="#1D1C31"/>
<path d="M17.3362 17.5127H15.6128V19.2595H17.3362V17.5127Z" fill="#1C1C35"/>
<path d="M19.0532 17.5127H17.3298V19.2595H19.0532V17.5127Z" fill="#292B60"/>
<path d="M20.7766 17.5127H19.0532V19.2595H20.7766V17.5127Z" fill="#293279"/>
<path d="M22.4937 17.5127H20.7703V19.2595H22.4937V17.5127Z" fill="#283272"/>
<path d="M24.2171 17.5127H22.4937V19.2595H24.2171V17.5127Z" fill="#2A3280"/>
<path d="M25.9341 17.5127H24.2107V19.2595H25.9341V17.5127Z" fill="#282A5A"/>
<path d="M27.6575 17.5127H25.9341V19.2595H27.6575V17.5127Z" fill="#202245"/>
<path d="M29.3745 17.5127H27.6511V19.2595H29.3745V17.5127Z" fill="#19192D"/>
<path d="M31.0979 17.5127H29.3745V19.2595H31.0979V17.5127Z" fill="#13141A"/>
<path d="M32.8148 17.5127H31.0914V19.2595H32.8148V17.5127Z" fill="#131423"/>
<path d="M34.5383 17.5127H32.8149V19.2595H34.5383V17.5127Z" fill="#464649"/>
<path d="M36.2617 17.5127H34.5383V19.2595H36.2617V17.5127Z" fill="#A49D98"/>
<path d="M8.73195 15.7666H7.00854V17.5134H8.73195V15.7666Z" fill="#B5B1AF"/>
<path d="M10.4553 15.7666H8.73193V17.5134H10.4553V15.7666Z" fill="#68666C"/>
<path d="M12.1724 15.7666H10.449V17.5134H12.1724V15.7666Z" fill="#242545"/>
<path d="M13.8958 15.7666H12.1724V17.5134H13.8958V15.7666Z" fill="#21213B"/>
<path d="M15.6128 15.7666H13.8894V17.5134H15.6128V15.7666Z" fill="#1C1C2F"/>
<path d="M17.3362 15.7666H15.6128V17.5134H17.3362V15.7666Z" fill="#1C1E3A"/>
<path d="M19.0532 15.7666H17.3298V17.5134H19.0532V15.7666Z" fill="#2A2E65"/>
<path d="M20.7766 15.7666H19.0532V17.5134H20.7766V15.7666Z" fill="#293279"/>
<path d="M22.4937 15.7666H20.7703V17.5134H22.4937V15.7666Z" fill="#2A388A"/>
<path d="M24.2171 15.7666H22.4937V17.5134H24.2171V15.7666Z" fill="#263685"/>
<path d="M25.9341 15.7666H24.2107V17.5134H25.9341V15.7666Z" fill="#293172"/>
<path d="M27.6575 15.7666H25.9341V17.5134H27.6575V15.7666Z" fill="#293173"/>
<path d="M29.3745 15.7666H27.6511V17.5134H29.3745V15.7666Z" fill="#1D1E3D"/>
<path d="M31.0979 15.7666H29.3745V17.5134H31.0979V15.7666Z" fill="#171522"/>
<path d="M32.8148 15.7666H31.0914V17.5134H32.8148V15.7666Z" fill="#13141A"/>
<path d="M34.5383 15.7666H32.8149V17.5134H34.5383V15.7666Z" fill="#464649"/>
<path d="M36.2617 15.7666H34.5383V17.5134H36.2617V15.7666Z" fill="#A69F9B"/>
<path d="M8.73195 14.0254H7.00854V15.7722H8.73195V14.0254Z" fill="#BAB6B4"/>
<path d="M10.4553 14.0254H8.73193V15.7722H10.4553V14.0254Z" fill="#676770"/>
<path d="M12.1724 14.0254H10.449V15.7722H12.1724V14.0254Z" fill="#292D5A"/>
<path d="M13.8958 14.0254H12.1724V15.7722H13.8958V14.0254Z" fill="#23243D"/>
<path d="M15.6128 14.0254H13.8894V15.7722H15.6128V14.0254Z" fill="#1F1F38"/>
<path d="M17.3362 14.0254H15.6128V15.7722H17.3362V14.0254Z" fill="#2B2D5A"/>
<path d="M19.0532 14.0254H17.3298V15.7722H19.0532V14.0254Z" fill="#3D3F79"/>
<path d="M20.7766 14.0254H19.0532V15.7722H20.7766V14.0254Z" fill="#5855A0"/>
<path d="M22.4937 14.0254H20.7703V15.7722H22.4937V14.0254Z" fill="#5D62AA"/>
<path d="M24.2171 14.0254H22.4937V15.7722H24.2171V14.0254Z" fill="#6166AD"/>
<path d="M25.9341 14.0254H24.2107V15.7722H25.9341V14.0254Z" fill="#766AAE"/>
<path d="M27.6575 14.0254H25.9341V15.7722H27.6575V14.0254Z" fill="#6F6EB1"/>
<path d="M29.3745 14.0254H27.6511V15.7722H29.3745V14.0254Z" fill="#313375"/>
<path d="M31.0979 14.0254H29.3745V15.7722H31.0979V14.0254Z" fill="#1E1C35"/>
<path d="M32.8148 14.0254H31.0914V15.7722H32.8148V14.0254Z" fill="#121317"/>
<path d="M34.5383 14.0254H32.8149V15.7722H34.5383V14.0254Z" fill="#444649"/>
<path d="M36.2617 14.0254H34.5383V15.7722H36.2617V14.0254Z" fill="#A59E9B"/>
<path d="M8.73195 12.2793H7.00854V14.0261H8.73195V12.2793Z" fill="#BFBAB9"/>
<path d="M10.4553 12.2793H8.73193V14.0261H10.4553V12.2793Z" fill="#676770"/>
<path d="M12.1724 12.2793H10.449V14.0261H12.1724V12.2793Z" fill="#2C316A"/>
<path d="M13.8958 12.2793H12.1724V14.0261H13.8958V12.2793Z" fill="#272744"/>
<path d="M15.6128 12.2793H13.8894V14.0261H15.6128V12.2793Z" fill="#1F2138"/>
<path d="M17.3362 12.2793H15.6128V14.0261H17.3362V12.2793Z" fill="#2F3967"/>
<path d="M19.0532 12.2793H17.3298V14.0261H19.0532V12.2793Z" fill="#4B4A88"/>
<path d="M20.7766 12.2793H19.0532V14.0261H20.7766V12.2793Z" fill="#6C6BB0"/>
<path d="M22.4937 12.2793H20.7703V14.0261H22.4937V12.2793Z" fill="#4E55A1"/>
<path d="M24.2171 12.2793H22.4937V14.0261H24.2171V12.2793Z" fill="#4F519E"/>
<path d="M25.9341 12.2793H24.2107V14.0261H25.9341V12.2793Z" fill="#3F408F"/>
<path d="M27.6575 12.2793H25.9341V14.0261H27.6575V12.2793Z" fill="#464A9A"/>
<path d="M29.3745 12.2793H27.6511V14.0261H29.3745V12.2793Z" fill="#232135"/>
<path d="M31.0979 12.2793H29.3745V14.0261H31.0979V12.2793Z" fill="#191926"/>
<path d="M32.8148 12.2793H31.0914V14.0261H32.8148V12.2793Z" fill="#151621"/>
<path d="M34.5383 12.2793H32.8149V14.0261H34.5383V12.2793Z" fill="#444649"/>
<path d="M36.2617 12.2793H34.5383V14.0261H36.2617V12.2793Z" fill="#A7A19E"/>
<path d="M8.73195 10.5322H7.00854V12.279H8.73195V10.5322Z" fill="#C4C0BF"/>
<path d="M10.4553 10.5322H8.73193V12.279H10.4553V10.5322Z" fill="#696974"/>
<path d="M12.1724 10.5322H10.449V12.279H12.1724V10.5322Z" fill="#303574"/>
<path d="M13.8958 10.5322H12.1724V12.279H13.8958V10.5322Z" fill="#2E2E58"/>
<path d="M15.6128 10.5322H13.8894V12.279H15.6128V10.5322Z" fill="#232440"/>
<path d="M17.3362 10.5322H15.6128V12.279H17.3362V10.5322Z" fill="#252947"/>
<path d="M19.0532 10.5322H17.3298V12.279H19.0532V10.5322Z" fill="#292C61"/>
<path d="M20.7766 10.5322H19.0532V12.279H20.7766V10.5322Z" fill="#283481"/>
<path d="M22.4937 10.5322H20.7703V12.279H22.4937V10.5322Z" fill="#283272"/>
<path d="M24.2171 10.5322H22.4937V12.279H24.2171V10.5322Z" fill="#28316D"/>
<path d="M25.9341 10.5322H24.2107V12.279H25.9341V10.5322Z" fill="#23244A"/>
<path d="M27.6575 10.5322H25.9341V12.279H27.6575V10.5322Z" fill="#292B60"/>
<path d="M29.3745 10.5322H27.6511V12.279H29.3745V10.5322Z" fill="#171820"/>
<path d="M31.0979 10.5322H29.3745V12.279H31.0979V10.5322Z" fill="#1D1C2A"/>
<path d="M32.8148 10.5322H31.0914V12.279H32.8148V10.5322Z" fill="#14151A"/>
<path d="M34.5383 10.5322H32.8149V12.279H34.5383V10.5322Z" fill="#454649"/>
<path d="M36.2617 10.5322H34.5383V12.279H36.2617V10.5322Z" fill="#ABA6A0"/>
<path d="M8.73195 8.79199H7.00854V10.5388H8.73195V8.79199Z" fill="#C9C4C4"/>
<path d="M10.4553 8.79199H8.73193V10.5388H10.4553V8.79199Z" fill="#696974"/>
<path d="M12.1724 8.79199H10.449V10.5388H12.1724V8.79199Z" fill="#333873"/>
<path d="M13.8958 8.79199H12.1724V10.5388H13.8958V8.79199Z" fill="#333769"/>
<path d="M15.6128 8.79199H13.8894V10.5388H15.6128V8.79199Z" fill="#2A2A43"/>
<path d="M17.3362 8.79199H15.6128V10.5388H17.3362V8.79199Z" fill="#2E2D4E"/>
<path d="M19.0532 8.79199H17.3298V10.5388H19.0532V8.79199Z" fill="#2D367E"/>
<path d="M20.7766 8.79199H19.0532V10.5388H20.7766V8.79199Z" fill="#28306E"/>
<path d="M22.4937 8.79199H20.7703V10.5388H22.4937V8.79199Z" fill="#3F4A9A"/>
<path d="M24.2171 8.79199H22.4937V10.5388H24.2171V8.79199Z" fill="#384495"/>
<path d="M25.9341 8.79199H24.2107V10.5388H25.9341V8.79199Z" fill="#293171"/>
<path d="M27.6575 8.79199H25.9341V10.5388H27.6575V8.79199Z" fill="#292F67"/>
<path d="M29.3745 8.79199H27.6511V10.5388H29.3745V8.79199Z" fill="#26254C"/>
<path d="M31.0979 8.79199H29.3745V10.5388H31.0979V8.79199Z" fill="#24243D"/>
<path d="M32.8148 8.79199H31.0914V10.5388H32.8148V8.79199Z" fill="#16171A"/>
<path d="M34.5383 8.79199H32.8149V10.5388H34.5383V8.79199Z" fill="#414244"/>
<path d="M36.2617 8.79199H34.5383V10.5388H36.2617V8.79199Z" fill="#ABA6A0"/>
<path d="M8.73195 7.04492H7.00854V8.79169H8.73195V7.04492Z" fill="#CBC9C8"/>
<path d="M10.4553 7.04492H8.73193V8.79169H10.4553V7.04492Z" fill="#6B6B74"/>
<path d="M12.1724 7.04492H10.449V8.79169H12.1724V7.04492Z" fill="#343864"/>
<path d="M13.8958 7.04492H12.1724V8.79169H13.8958V7.04492Z" fill="#34396B"/>
<path d="M15.6128 7.04492H13.8894V8.79169H15.6128V7.04492Z" fill="#313153"/>
<path d="M17.3362 7.04492H15.6128V8.79169H17.3362V7.04492Z" fill="#2D2F46"/>
<path d="M19.0532 7.04492H17.3298V8.79169H19.0532V7.04492Z" fill="#2D3160"/>
<path d="M20.7766 7.04492H19.0532V8.79169H20.7766V7.04492Z" fill="#2B347A"/>
<path d="M22.4937 7.04492H20.7703V8.79169H22.4937V7.04492Z" fill="#2B2F66"/>
<path d="M24.2171 7.04492H22.4937V8.79169H24.2171V7.04492Z" fill="#343C8F"/>
<path d="M25.9341 7.04492H24.2107V8.79169H25.9341V7.04492Z" fill="#364293"/>
<path d="M27.6575 7.04492H25.9341V8.79169H27.6575V7.04492Z" fill="#2C3174"/>
<path d="M29.3745 7.04492H27.6511V8.79169H29.3745V7.04492Z" fill="#292A52"/>
<path d="M31.0979 7.04492H29.3745V8.79169H31.0979V7.04492Z" fill="#21212F"/>
<path d="M32.8148 7.04492H31.0914V8.79169H32.8148V7.04492Z" fill="#302E1B"/>
<path d="M34.5383 7.04492H32.8149V8.79169H34.5383V7.04492Z" fill="#C0B809"/>
<path d="M36.2617 7.04492H34.5383V8.79169H36.2617V7.04492Z" fill="#D9D010"/>
<path d="M37.9788 7.04492H36.2554V8.79169H37.9788V7.04492Z" fill="#DACC0A"/>
<path d="M8.73195 5.30469H7.00854V7.05145H8.73195V5.30469Z" fill="#D2CECC"/>
<path d="M10.4553 5.30469H8.73193V7.05145H10.4553V5.30469Z" fill="#6C6C76"/>
<path d="M12.1724 5.30469H10.449V7.05145H12.1724V5.30469Z" fill="#3F4164"/>
<path d="M13.8958 5.30469H12.1724V7.05145H13.8958V5.30469Z" fill="#3B3E68"/>
<path d="M15.6128 5.30469H13.8894V7.05145H15.6128V5.30469Z" fill="#363959"/>
<path d="M17.3362 5.30469H15.6128V7.05145H17.3362V5.30469Z" fill="#323249"/>
<path d="M19.0532 5.30469H17.3298V7.05145H19.0532V5.30469Z" fill="#303151"/>
<path d="M20.7766 5.30469H19.0532V7.05145H20.7766V5.30469Z" fill="#30367B"/>
<path d="M22.4937 5.30469H20.7703V7.05145H22.4937V5.30469Z" fill="#2E2E5D"/>
<path d="M24.2171 5.30469H22.4937V7.05145H24.2171V5.30469Z" fill="#292849"/>
<path d="M25.9341 5.30469H24.2107V7.05145H25.9341V5.30469Z" fill="#2A3277"/>
<path d="M27.6575 5.30469H25.9341V7.05145H27.6575V5.30469Z" fill="#2C2D5E"/>
<path d="M29.3745 5.30469H27.6511V7.05145H29.3745V5.30469Z" fill="#282842"/>
<path d="M31.0979 5.30469H29.3745V7.05145H31.0979V5.30469Z" fill="#1F1F27"/>
<path d="M32.8148 5.30469H31.0914V7.05145H32.8148V5.30469Z" fill="#2C2C1D"/>
<path d="M34.5383 5.30469H32.8149V7.05145H34.5383V5.30469Z" fill="#D3CC09"/>
<path d="M36.2617 5.30469H34.5383V7.05145H36.2617V5.30469Z" fill="#C2BB07"/>
<path d="M37.9788 5.30469H36.2554V7.05145H37.9788V5.30469Z" fill="#B4AC12"/>
<path d="M8.72548 3.57715H7.00208V5.32391H8.72548V3.57715Z" fill="#D4D3D0"/>
<path d="M10.4425 3.57715H8.71912V5.32391H10.4425V3.57715Z" fill="#686769"/>
<path d="M12.1659 3.57715H10.4425V5.32391H12.1659V3.57715Z" fill="#373744"/>
<path d="M13.883 3.57715H12.1595V5.32391H13.883V3.57715Z" fill="#333340"/>
<path d="M15.6063 3.57715H13.8829V5.32391H15.6063V3.57715Z" fill="#31323C"/>
<path d="M17.3234 3.57715H15.6V5.32391H17.3234V3.57715Z" fill="#2F2D37"/>
<path d="M19.0468 3.57715H17.3234V5.32391H19.0468V3.57715Z" fill="#2E2D3A"/>
<path d="M20.7638 3.57715H19.0404V5.32391H20.7638V3.57715Z" fill="#2C2A39"/>
<path d="M22.4872 3.57715H20.7638V5.32391H22.4872V3.57715Z" fill="#2C2A4F"/>
<path d="M24.2106 3.57715H22.4872V5.32391H24.2106V3.57715Z" fill="#25242A"/>
<path d="M25.9276 3.57715H24.2042V5.32391H25.9276V3.57715Z" fill="#252431"/>
<path d="M27.651 3.57715H25.9276V5.32391H27.651V3.57715Z" fill="#23232E"/>
<path d="M29.3681 3.57715H27.6447V5.32391H29.3681V3.57715Z" fill="#221F25"/>
<path d="M31.0914 3.57715H29.368V5.32391H31.0914V3.57715Z" fill="#1F1E20"/>
<path d="M32.8085 3.57715H31.0851V5.32391H32.8085V3.57715Z" fill="#22201C"/>
<path d="M34.5319 3.57715H32.8085V5.32391H34.5319V3.57715Z" fill="#CDC606"/>
<path d="M36.2489 3.57715H34.5255V5.32391H36.2489V3.57715Z" fill="#CCC506"/>
<path d="M37.9723 3.57715H36.2489V5.32391H37.9723V3.57715Z" fill="#EADD00"/>
<path d="M8.72548 1.83105H7.00208V3.57782H8.72548V1.83105Z" fill="#D4D3D0"/>
<path d="M10.4425 1.83105H8.71912V3.57782H10.4425V1.83105Z" fill="#D7D7D1"/>
<path d="M12.1659 1.83105H10.4425V3.57782H12.1659V1.83105Z" fill="#D8D7D0"/>
<path d="M13.883 1.83105H12.1595V3.57782H13.883V1.83105Z" fill="#D8D7CE"/>
<path d="M15.6063 1.83105H13.8829V3.57782H15.6063V1.83105Z" fill="#D7D5CD"/>
<path d="M17.3234 1.83105H15.6V3.57782H17.3234V1.83105Z" fill="#D3D1CB"/>
<path d="M19.0468 1.83105H17.3234V3.57782H19.0468V1.83105Z" fill="#CFCEC8"/>
<path d="M20.7638 1.83105H19.0404V3.57782H20.7638V1.83105Z" fill="#CFCBC4"/>
<path d="M22.4872 1.83105H20.7638V3.57782H22.4872V1.83105Z" fill="#CEC9C3"/>
<path d="M24.2106 1.83105H22.4872V3.57782H24.2106V1.83105Z" fill="#CCC7C1"/>
<path d="M25.9276 1.83105H24.2042V3.57782H25.9276V1.83105Z" fill="#C8C1BC"/>
<path d="M27.651 1.83105H25.9276V3.57782H27.651V1.83105Z" fill="#C5BFB8"/>
<path d="M29.3681 1.83105H27.6447V3.57782H29.3681V1.83105Z" fill="#C1BBB4"/>
<path d="M31.0914 1.83105H29.368V3.57782H31.0914V1.83105Z" fill="#BDB6AF"/>
<path d="M32.8085 1.83105H31.0851V3.57782H32.8085V1.83105Z" fill="#B7B0AC"/>
<path d="M34.5319 1.83105H32.8085V3.57782H34.5319V1.83105Z" fill="#D3C453"/>
<path d="M36.2489 1.83105H34.5255V3.57782H36.2489V1.83105Z" fill="#CBBA59"/>
<path d="M37.9723 1.83105H36.2489V3.57782H37.9723V1.83105Z" fill="#9D8F47"/>
<path d="M29.3681 0.103516H27.6447V1.85028H29.3681V0.103516Z" fill="#010202"/>
<path d="M31.0914 0.103516H29.368V1.85028H31.0914V0.103516Z" fill="#010202"/>
<path d="M32.8085 0.103516H31.0851V1.85028H32.8085V0.103516Z" fill="#010202"/>
<path d="M34.5319 0.103516H32.8085V1.85028H34.5319V0.103516Z" fill="#010202"/>
<path d="M36.2489 0.103516H34.5255V1.85028H36.2489V0.103516Z" fill="#010202"/>
<path d="M37.9723 0.103516H36.2489V1.85028H37.9723V0.103516Z" fill="#010202"/>
<path d="M37.9788 24.4746H36.2554V26.2214H37.9788V24.4746Z" fill="#010202"/>
<path d="M37.9788 22.7334H36.2554V24.4802H37.9788V22.7334Z" fill="#010202"/>
<path d="M37.9788 20.9873H36.2554V22.7341H37.9788V20.9873Z" fill="#010202"/>
<path d="M37.9788 19.2471H36.2554V20.9938H37.9788V19.2471Z" fill="#010202"/>
<path d="M37.9788 17.5H36.2554V19.2468H37.9788V17.5Z" fill="#010202"/>
<path d="M37.9788 15.7598H36.2554V17.5065H37.9788V15.7598Z" fill="#010202"/>
<path d="M37.9788 14.0127H36.2554V15.7595H37.9788V14.0127Z" fill="#010202"/>
<path d="M37.9788 12.2725H36.2554V14.0192H37.9788V12.2725Z" fill="#010202"/>
<path d="M37.9788 10.5254H36.2554V12.2722H37.9788V10.5254Z" fill="#010202"/>
<path d="M37.9788 8.78516H36.2554V10.5319H37.9788V8.78516Z" fill="#010202"/>
<path d="M39.7022 7.03906H37.9788V8.78583H39.7022V7.03906Z" fill="#010202"/>
<path d="M39.7022 5.29883H37.9788V7.04559H39.7022V5.29883Z" fill="#010202"/>
<path d="M39.6893 3.57129H37.9659V5.31805H39.6893V3.57129Z" fill="#010202"/>
<path d="M39.6893 1.82422H37.9659V3.57098H39.6893V1.82422Z" fill="#010202"/>
<path d="M39.7022 24.4746H37.9788V26.2214H39.7022V24.4746Z" fill="#010202"/>
<path d="M41.4192 24.4746H39.6958V26.2214H41.4192V24.4746Z" fill="#010202"/>
<path d="M43.1426 24.4746H41.4192V26.2214H43.1426V24.4746Z" fill="#010202"/>
<path d="M44.866 31.4287H43.1426V33.1755H44.866V31.4287Z" fill="#010202"/>
<path d="M44.866 29.6816H43.1426V31.4284H44.866V29.6816Z" fill="#010202"/>
<path d="M44.866 27.9805H43.1426V29.7272H44.866V27.9805Z" fill="#010202"/>
<path d="M44.866 26.2334H43.1426V27.9802H44.866V26.2334Z" fill="#010202"/>
<path d="M8.72548 33.1494H7.00208V34.8962H8.72548V33.1494Z" fill="#010202"/>
<path d="M10.4425 33.1494H8.71912V34.8962H10.4425V33.1494Z" fill="#010202"/>
<path d="M12.1659 33.1494H10.4425V34.8962H12.1659V33.1494Z" fill="#010202"/>
<path d="M13.883 33.1494H12.1595V34.8962H13.883V33.1494Z" fill="#010202"/>
<path d="M15.6063 33.1494H13.8829V34.8962H15.6063V33.1494Z" fill="#010202"/>
<path d="M17.3234 33.1494H15.6V34.8962H17.3234V33.1494Z" fill="#010202"/>
<path d="M19.0468 33.1494H17.3234V34.8962H19.0468V33.1494Z" fill="#010202"/>
<path d="M20.7638 33.1494H19.0404V34.8962H20.7638V33.1494Z" fill="#010202"/>
<path d="M22.4872 33.1494H20.7638V34.8962H22.4872V33.1494Z" fill="#010202"/>
<path d="M24.2106 33.1494H22.4872V34.8962H24.2106V33.1494Z" fill="#010202"/>
<path d="M25.9276 33.1494H24.2042V34.8962H25.9276V33.1494Z" fill="#010202"/>
<path d="M27.651 33.1494H25.9276V34.8962H27.651V33.1494Z" fill="#010202"/>
<path d="M29.3681 33.1494H27.6447V34.8962H29.3681V33.1494Z" fill="#010202"/>
<path d="M31.0914 33.1494H29.368V34.8962H31.0914V33.1494Z" fill="#010202"/>
<path d="M32.8085 33.1494H31.0851V34.8962H32.8085V33.1494Z" fill="#010202"/>
<path d="M34.5319 33.1494H32.8085V34.8962H34.5319V33.1494Z" fill="#010202"/>
<path d="M36.2489 33.1494H34.5255V34.8962H36.2489V33.1494Z" fill="#010202"/>
<path d="M37.9723 33.1494H36.2489V34.8962H37.9723V33.1494Z" fill="#010202"/>
<path d="M39.6893 33.1494H37.9659V34.8962H39.6893V33.1494Z" fill="#010202"/>
<path d="M41.4127 33.1494H39.6893V34.8962H41.4127V33.1494Z" fill="#010202"/>
<path d="M43.1298 33.1494H41.4064V34.8962H43.1298V33.1494Z" fill="#010202"/>
</svg>
