<svg width="35" height="37" viewBox="0 0 35 37" fill="none" xmlns="http://www.w3.org/2000/svg">
<path d="M12.025 34.8232H10.9277V35.9112H12.025V34.8232Z" fill="#CBC9C9"/>
<path d="M13.1222 34.8232H12.0249V35.9112H13.1222V34.8232Z" fill="#DAD9D8"/>
<path d="M14.2116 34.8232H13.1144V35.9112H14.2116V34.8232Z" fill="#CCCAC8"/>
<path d="M15.3089 34.8232H14.2117V35.9112H15.3089V34.8232Z" fill="#A1A09F"/>
<path d="M16.4061 34.8232H15.3088V35.9112H16.4061V34.8232Z" fill="#787877"/>
<path d="M17.5045 34.8232H16.4072V35.9112H17.5045V34.8232Z" fill="#4B4B4C"/>
<path d="M10.9266 33.7354H9.82935V34.8233H10.9266V33.7354Z" fill="#AAA9AA"/>
<path d="M12.025 33.7354H10.9277V34.8233H12.025V33.7354Z" fill="#D2D0D0"/>
<path d="M13.1222 33.7354H12.0249V34.8233H13.1222V33.7354Z" fill="#C3C2C2"/>
<path d="M14.2194 33.7354H13.1222V34.8233H14.2194V33.7354Z" fill="#CAC8C7"/>
<path d="M15.3178 33.7354H14.2206V34.8233H15.3178V33.7354Z" fill="#D2D0D0"/>
<path d="M16.4151 33.7354H15.3179V34.8233H16.4151V33.7354Z" fill="#D1CFCF"/>
<path d="M17.5123 33.7354H16.415V34.8233H17.5123V33.7354Z" fill="#D1CFCE"/>
<path d="M18.6096 33.7354H17.5123V34.8233H18.6096V33.7354Z" fill="#B8B7B6"/>
<path d="M19.708 33.7354H18.6107V34.8233H19.708V33.7354Z" fill="#8E8C8C"/>
<path d="M10.9188 32.6475H9.82153V33.7354H10.9188V32.6475Z" fill="#D4D3D3"/>
<path d="M12.0159 32.6475H10.9187V33.7354H12.0159V32.6475Z" fill="#C7C5C5"/>
<path d="M13.1132 32.6475H12.016V33.7354H13.1132V32.6475Z" fill="#B6B5B4"/>
<path d="M14.2116 32.6475H13.1144V33.7354H14.2116V32.6475Z" fill="#9B9898"/>
<path d="M15.3089 32.6475H14.2117V33.7354H15.3089V32.6475Z" fill="#8B8A8A"/>
<path d="M16.4061 32.6475H15.3088V33.7354H16.4061V32.6475Z" fill="#8C8A8B"/>
<path d="M17.5045 32.6475H16.4072V33.7354H17.5045V32.6475Z" fill="#A6A4A3"/>
<path d="M18.6018 32.6475H17.5045V33.7354H18.6018V32.6475Z" fill="#C0BEBE"/>
<path d="M19.6989 32.6475H18.6017V33.7354H19.6989V32.6475Z" fill="#CFCECD"/>
<path d="M20.7962 32.6475H19.699V33.7354H20.7962V32.6475Z" fill="#D1CFCF"/>
<path d="M21.8946 32.6475H20.7974V33.7354H21.8946V32.6475Z" fill="#CBC9C9"/>
<path d="M22.9918 32.6475H21.8945V33.7354H22.9918V32.6475Z" fill="#A6A3A3"/>
<path d="M24.0891 32.6475H22.9918V33.7354H24.0891V32.6475Z" fill="#7C7B7B"/>
<path d="M10.9266 31.5596H9.82935V32.6475H10.9266V31.5596Z" fill="#DBDAD9"/>
<path d="M12.025 31.5596H10.9277V32.6475H12.025V31.5596Z" fill="#E1E1E0"/>
<path d="M13.1222 31.5596H12.0249V32.6475H13.1222V31.5596Z" fill="#DBDAD8"/>
<path d="M14.2194 31.5596H13.1222V32.6475H14.2194V31.5596Z" fill="#D8D7D5"/>
<path d="M15.3178 31.5596H14.2206V32.6475H15.3178V31.5596Z" fill="#DBDAD9"/>
<path d="M16.4151 31.5596H15.3179V32.6475H16.4151V31.5596Z" fill="#DBDAD9"/>
<path d="M17.5123 31.5596H16.415V32.6475H17.5123V31.5596Z" fill="#C5C2C1"/>
<path d="M18.6096 31.5596H17.5123V32.6475H18.6096V31.5596Z" fill="#AAA8A8"/>
<path d="M19.708 31.5596H18.6107V32.6475H19.708V31.5596Z" fill="#9F9D9D"/>
<path d="M20.8051 31.5596H19.7079V32.6475H20.8051V31.5596Z" fill="#9F9D9D"/>
<path d="M21.9024 31.5596H20.8052V32.6475H21.9024V31.5596Z" fill="#A4A1A1"/>
<path d="M23.0008 31.5596H21.9036V32.6475H23.0008V31.5596Z" fill="#BFBDBD"/>
<path d="M24.0981 31.5596H23.0009V32.6475H24.0981V31.5596Z" fill="#CFCDCC"/>
<path d="M9.8674 31.5596H8.72424V32.6475H9.8674V31.5596Z" fill="#D3D1D1"/>
<path d="M25.1875 31.5596H24.0902V32.6475H25.1875V31.5596Z" fill="#D0CFCF"/>
<path d="M26.2847 31.5596H25.1875V32.6475H26.2847V31.5596Z" fill="#BCBBBB"/>
<path d="M27.3819 31.5596H26.2847V32.6475H27.3819V31.5596Z" fill="#919090"/>
<path d="M10.9355 30.4702H9.83826V31.5581H10.9355V30.4702Z" fill="#E6E5E3"/>
<path d="M12.0328 30.4702H10.9355V31.5581H12.0328V30.4702Z" fill="#D5D6D5"/>
<path d="M13.1312 30.4702H12.0339V31.5581H13.1312V30.4702Z" fill="#CAC8C7"/>
<path d="M14.2284 30.4702H13.1311V31.5581H14.2284V30.4702Z" fill="#D2D2D1"/>
<path d="M15.3256 30.4702H14.2284V31.5581H15.3256V30.4702Z" fill="#D8D7D7"/>
<path d="M16.4229 30.4702H15.3257V31.5581H16.4229V30.4702Z" fill="#D8D7D7"/>
<path d="M17.5213 30.4702H16.4241V31.5581H17.5213V30.4702Z" fill="#D8D7D7"/>
<path d="M18.6185 30.4702H17.5212V31.5581H18.6185V30.4702Z" fill="#D3D3D2"/>
<path d="M19.7158 30.4702H18.6185V31.5581H19.7158V30.4702Z" fill="#D8D8D7"/>
<path d="M20.8142 30.4702H19.7169V31.5581H20.8142V30.4702Z" fill="#DCDBDB"/>
<path d="M21.9113 30.4702H20.8141V31.5581H21.9113V30.4702Z" fill="#DBDAD8"/>
<path d="M23.0086 30.4702H21.9114V31.5581H23.0086V30.4702Z" fill="#C2C0BF"/>
<path d="M24.107 30.4702H23.0098V31.5581H24.107V30.4702Z" fill="#B3B1B1"/>
<path d="M9.87743 30.4702H8.69397V31.5581H9.87743V30.4702Z" fill="#E6E5E3"/>
<path d="M25.1953 30.4702H24.098V31.5581H25.1953V30.4702Z" fill="#B3B1B1"/>
<path d="M26.2926 30.4702H25.1953V31.5581H26.2926V30.4702Z" fill="#B2B1B0"/>
<path d="M27.3909 30.4702H26.2937V31.5581H27.3909V30.4702Z" fill="#BCBABB"/>
<path d="M28.4837 30.4702H27.3865V31.5581H28.4837V30.4702Z" fill="#CFCDCC"/>
<path d="M29.5731 30.4702H28.4758V31.5581H29.5731V30.4702Z" fill="#CCCACA"/>
<path d="M30.6704 30.4702H29.5731V31.5581H30.6704V30.4702Z" fill="#A8A6A6"/>
<path d="M31.7688 30.4702H30.6715V31.5581H31.7688V30.4702Z" fill="#7F7D7D"/>
<path d="M8.72319 30.4702H7.65393V31.5581H8.72319V30.4702Z" fill="#BEBCBB"/>
<path d="M10.9355 29.3823H9.83826V30.4702H10.9355V29.3823Z" fill="#DCDBDB"/>
<path d="M12.0328 29.3823H10.9355V30.4702H12.0328V29.3823Z" fill="#BBBBBA"/>
<path d="M13.1312 29.3823H12.0339V30.4702H13.1312V29.3823Z" fill="#BCBCBB"/>
<path d="M14.2284 29.3823H13.1311V30.4702H14.2284V29.3823Z" fill="#BBBBBC"/>
<path d="M15.3256 29.3823H14.2284V30.4702H15.3256V29.3823Z" fill="#BBBBBC"/>
<path d="M16.4229 29.3823H15.3257V30.4702H16.4229V29.3823Z" fill="#BBBBBC"/>
<path d="M17.5213 29.3823H16.4241V30.4702H17.5213V29.3823Z" fill="#D8D7D7"/>
<path d="M18.6185 29.3823H17.5212V30.4702H18.6185V29.3823Z" fill="#CBC9CA"/>
<path d="M19.7158 29.3823H18.6185V30.4702H19.7158V29.3823Z" fill="#D0CFCF"/>
<path d="M20.8142 29.3823H19.7169V30.4702H20.8142V29.3823Z" fill="#D8D7D6"/>
<path d="M21.9113 29.3823H20.8141V30.4702H21.9113V29.3823Z" fill="#D8D8D7"/>
<path d="M23.0086 29.3823H21.9114V30.4702H23.0086V29.3823Z" fill="#D7D6D4"/>
<path d="M24.107 29.3823H23.0098V30.4702H24.107V29.3823Z" fill="#D3D3D2"/>
<path d="M9.87743 29.3823H8.69397V30.4702H9.87743V29.3823Z" fill="#EBEAE9"/>
<path d="M25.2043 29.3823H24.1071V30.4702H25.2043V29.3823Z" fill="#D6D6D6"/>
<path d="M26.3015 29.3823H25.2042V30.4702H26.3015V29.3823Z" fill="#DFDEDD"/>
<path d="M27.3988 29.3823H26.3015V30.4702H27.3988V29.3823Z" fill="#D8D8D7"/>
<path d="M28.4926 29.3823H27.3954V30.4702H28.4926V29.3823Z" fill="#C5C2C2"/>
<path d="M29.5821 29.3823H28.4849V30.4702H29.5821V29.3823Z" fill="#C2C0C0"/>
<path d="M30.6793 29.3823H29.582V30.4702H30.6793V29.3823Z" fill="#C1BFBF"/>
<path d="M31.7766 29.3823H30.6793V30.4702H31.7766V29.3823Z" fill="#BFBDBC"/>
<path d="M8.7231 29.3823H7.62585V30.4702H8.7231V29.3823Z" fill="#EBEAE9"/>
<path d="M32.8739 29.3823H31.7766V30.4702H32.8739V29.3823Z" fill="#CFCDCC"/>
<path d="M33.9721 29.3823H32.8749V30.4702H33.9721V29.3823Z" fill="#010202"/>
<path d="M7.65385 29.3823H6.52637V30.4702H7.65385V29.3823Z" fill="#999897"/>
<path d="M10.9355 28.2944H9.83826V29.3823H10.9355V28.2944Z" fill="#E5E3E2"/>
<path d="M12.0328 28.2944H10.9355V29.3823H12.0328V28.2944Z" fill="#D3D3D2"/>
<path d="M13.1312 28.2944H12.0339V29.3823H13.1312V28.2944Z" fill="#CAC9C8"/>
<path d="M14.2284 28.2944H13.1311V29.3823H14.2284V28.2944Z" fill="#C2C1C2"/>
<path d="M15.3256 28.2944H14.2284V29.3823H15.3256V28.2944Z" fill="#BBBBBC"/>
<path d="M16.4229 28.2944H15.3257V29.3823H16.4229V28.2944Z" fill="#BBBBBC"/>
<path d="M17.5213 28.2944H16.4241V29.3823H17.5213V28.2944Z" fill="#BBBBBC"/>
<path d="M18.6185 28.2944H17.5212V29.3823H18.6185V28.2944Z" fill="#B9BAB9"/>
<path d="M19.7158 28.2944H18.6185V29.3823H19.7158V28.2944Z" fill="#C1C0C0"/>
<path d="M20.8142 28.2944H19.7169V29.3823H20.8142V28.2944Z" fill="#DEDDDD"/>
<path d="M21.9113 28.2944H20.8141V29.3823H21.9113V28.2944Z" fill="#D8D8D7"/>
<path d="M23.0086 28.2944H21.9114V29.3823H23.0086V28.2944Z" fill="#D8D8D7"/>
<path d="M24.107 28.2944H23.0098V29.3823H24.107V28.2944Z" fill="#D7D6D6"/>
<path d="M9.87743 28.2944H8.69397V29.3823H9.87743V28.2944Z" fill="#EBEAE9"/>
<path d="M25.2043 28.2944H24.1071V29.3823H25.2043V28.2944Z" fill="#CDCCCC"/>
<path d="M26.3015 28.2944H25.2042V29.3823H26.3015V28.2944Z" fill="#C8C9C8"/>
<path d="M27.3988 28.2944H26.3015V29.3823H27.3988V28.2944Z" fill="#C3C4C4"/>
<path d="M28.4926 28.2944H27.3954V29.3823H28.4926V28.2944Z" fill="#CECDCC"/>
<path d="M29.5821 28.2944H28.4849V29.3823H29.5821V28.2944Z" fill="#CFCECD"/>
<path d="M30.6793 28.2944H29.582V29.3823H30.6793V28.2944Z" fill="#D1CFD0"/>
<path d="M31.7766 28.2944H30.6793V29.3823H31.7766V28.2944Z" fill="#E0DFDE"/>
<path d="M8.7231 28.2944H7.62585V29.3823H8.7231V28.2944Z" fill="#EBEAE9"/>
<path d="M32.8739 28.2944H31.7766V29.3823H32.8739V28.2944Z" fill="#D2D0D0"/>
<path d="M33.9721 28.2944H32.8749V29.3823H33.9721V28.2944Z" fill="#010202"/>
<path d="M7.65387 28.2944H6.47937V29.3823H7.65387V28.2944Z" fill="#DEDEDE"/>
<path d="M6.52864 28.2944H5.4314V29.3823H6.52864V28.2944Z" fill="#767575"/>
<path d="M9.83834 27.2056H8.74109V28.2935H9.83834V27.2056Z" fill="#D7D7D6"/>
<path d="M10.9355 27.2056H9.83826V28.2935H10.9355V27.2056Z" fill="#CFCFCF"/>
<path d="M12.0328 27.2056H10.9355V28.2935H12.0328V27.2056Z" fill="#DDDCDC"/>
<path d="M13.1312 27.2056H12.0339V28.2935H13.1312V27.2056Z" fill="#D8D8D8"/>
<path d="M14.2284 27.2056H13.1311V28.2935H14.2284V27.2056Z" fill="#DFDEDD"/>
<path d="M15.3256 27.2056H14.2284V28.2935H15.3256V27.2056Z" fill="#DCDBDB"/>
<path d="M16.4229 27.2056H15.3257V28.2935H16.4229V27.2056Z" fill="#CFCFCE"/>
<path d="M17.5213 27.2056H16.4241V28.2935H17.5213V27.2056Z" fill="#C7C6C6"/>
<path d="M18.6185 27.2056H17.5212V28.2935H18.6185V27.2056Z" fill="#CFCDCD"/>
<path d="M19.7158 27.2056H18.6185V28.2935H19.7158V27.2056Z" fill="#D0CFD0"/>
<path d="M20.8142 27.2056H19.7169V28.2935H20.8142V27.2056Z" fill="#BABBBA"/>
<path d="M21.9113 27.2056H20.8141V28.2935H21.9113V27.2056Z" fill="#C3C2C2"/>
<path d="M23.0086 27.2056H21.9114V28.2935H23.0086V27.2056Z" fill="#CCCCCB"/>
<path d="M8.76125 27.2056H7.63489V28.2935H8.76125V27.2056Z" fill="#EEEEEE"/>
<path d="M24.107 27.2056H23.0098V28.2935H24.107V27.2056Z" fill="#C6C4C4"/>
<path d="M25.2043 27.2056H24.1071V28.2935H25.2043V27.2056Z" fill="#C7C5C5"/>
<path d="M26.3015 27.2056H25.2042V28.2935H26.3015V27.2056Z" fill="#B3B4B4"/>
<path d="M27.3953 27.2056H26.2981V28.2935H27.3953V27.2056Z" fill="#AEAFAE"/>
<path d="M28.4837 27.2056H27.3865V28.2935H28.4837V27.2056Z" fill="#A3A3A3"/>
<path d="M29.5821 27.2056H28.4849V28.2935H29.5821V27.2056Z" fill="#AEAFAE"/>
<path d="M30.6793 27.2056H29.582V28.2935H30.6793V27.2056Z" fill="#C0BEBD"/>
<path d="M7.65387 27.2056H6.47937V28.2935H7.65387V27.2056Z" fill="#EBEAE9"/>
<path d="M31.7766 27.2056H30.6793V28.2935H31.7766V27.2056Z" fill="#E2E1E0"/>
<path d="M32.8739 27.2056H31.7766V28.2935H32.8739V27.2056Z" fill="#010202"/>
<path d="M6.52864 27.2056H5.4314V28.2935H6.52864V27.2056Z" fill="#CAC8C8"/>
<path d="M5.43026 27.2056H4.33301V28.2935H5.43026V27.2056Z" fill="#5E5E5F"/>
<path d="M9.83602 26.1177H8.73877V27.2056H9.83602V26.1177Z" fill="#C2C1C2"/>
<path d="M10.9333 26.1177H9.83606V27.2056H10.9333V26.1177Z" fill="#C2C1C2"/>
<path d="M12.0306 26.1177H10.9333V27.2056H12.0306V26.1177Z" fill="#BFBDBE"/>
<path d="M13.1289 26.1177H12.0316V27.2056H13.1289V26.1177Z" fill="#BEBDBD"/>
<path d="M14.2262 26.1177H13.1289V27.2056H14.2262V26.1177Z" fill="#BCBCBC"/>
<path d="M15.3234 26.1177H14.2262V27.2056H15.3234V26.1177Z" fill="#C7C6C6"/>
<path d="M16.4218 26.1177H15.3246V27.2056H16.4218V26.1177Z" fill="#CFCFCE"/>
<path d="M17.519 26.1177H16.4218V27.2056H17.519V26.1177Z" fill="#DEDEDD"/>
<path d="M18.6163 26.1177H17.519V27.2056H18.6163V26.1177Z" fill="#D9D9D9"/>
<path d="M19.7136 26.1177H18.6163V27.2056H19.7136V26.1177Z" fill="#CAC9C8"/>
<path d="M20.8118 26.1177H19.7146V27.2056H20.8118V26.1177Z" fill="#B2B1AF"/>
<path d="M21.9091 26.1177H20.8119V27.2056H21.9091V26.1177Z" fill="#A6A5A6"/>
<path d="M23.0064 26.1177H21.9092V27.2056H23.0064V26.1177Z" fill="#A2A2A0"/>
<path d="M8.75893 26.1177H7.63257V27.2056H8.75893V26.1177Z" fill="#E4E3E2"/>
<path d="M24.1048 26.1177H23.0076V27.2056H24.1048V26.1177Z" fill="#A2A2A0"/>
<path d="M25.202 26.1177H24.1047V27.2056H25.202V26.1177Z" fill="#A1A09F"/>
<path d="M26.2993 26.1177H25.202V27.2056H26.2993V26.1177Z" fill="#A8A7A7"/>
<path d="M27.3931 26.1177H26.2959V27.2056H27.3931V26.1177Z" fill="#B6B6B6"/>
<path d="M28.4814 26.1177H27.3842V27.2056H28.4814V26.1177Z" fill="#BABABB"/>
<path d="M29.5798 26.1177H28.4825V27.2056H29.5798V26.1177Z" fill="#CCCAC9"/>
<path d="M30.6771 26.1177H29.5798V27.2056H30.6771V26.1177Z" fill="#010202"/>
<path d="M7.65168 26.1177H6.47717V27.2056H7.65168V26.1177Z" fill="#EFEFEF"/>
<path d="M31.7743 26.1177H30.677V27.2056H31.7743V26.1177Z" fill="#010202"/>
<path d="M6.52645 26.1177H5.4292V27.2056H6.52645V26.1177Z" fill="#DCDBDB"/>
<path d="M5.42806 26.1177H4.33081V27.2056H5.42806V26.1177Z" fill="#B1AFAF"/>
<path d="M9.83834 25.0298H8.74109V26.1177H9.83834V25.0298Z" fill="#DBDCDB"/>
<path d="M10.9355 25.0298H9.83826V26.1177H10.9355V25.0298Z" fill="#D9D9D8"/>
<path d="M12.0328 25.0298H10.9355V26.1177H12.0328V25.0298Z" fill="#CFCDCE"/>
<path d="M13.1312 25.0298H12.0339V26.1177H13.1312V25.0298Z" fill="#C3C3C3"/>
<path d="M14.2284 25.0298H13.1311V26.1177H14.2284V25.0298Z" fill="#C3C3C3"/>
<path d="M15.3256 25.0298H14.2284V26.1177H15.3256V25.0298Z" fill="#BFC0BF"/>
<path d="M16.4229 25.0298H15.3257V26.1177H16.4229V25.0298Z" fill="#BDBDBD"/>
<path d="M17.5213 25.0298H16.4241V26.1177H17.5213V25.0298Z" fill="#DAD9D9"/>
<path d="M18.6185 25.0298H17.5212V26.1177H18.6185V25.0298Z" fill="#C2C1C1"/>
<path d="M19.7158 25.0298H18.6185V26.1177H19.7158V25.0298Z" fill="#C2C1C2"/>
<path d="M20.8142 25.0298H19.7169V26.1177H20.8142V25.0298Z" fill="#C2B0A2"/>
<path d="M21.9113 25.0298H20.8141V26.1177H21.9113V25.0298Z" fill="#ACA39C"/>
<path d="M23.0086 25.0298H21.9114V26.1177H23.0086V25.0298Z" fill="#B7B7B8"/>
<path d="M8.76125 25.0298H7.63489V26.1177H8.76125V25.0298Z" fill="#DBDBDB"/>
<path d="M24.107 25.0298H23.0098V26.1177H24.107V25.0298Z" fill="#B9BAB9"/>
<path d="M25.2043 25.0298H24.1071V26.1177H25.2043V25.0298Z" fill="#B3B4B4"/>
<path d="M26.3015 25.0298H25.2042V26.1177H26.3015V25.0298Z" fill="#B8B8B9"/>
<path d="M27.3953 25.0298H26.2981V26.1177H27.3953V25.0298Z" fill="#C6C4C4"/>
<path d="M28.4837 25.0298H27.3865V26.1177H28.4837V25.0298Z" fill="#E4E3E1"/>
<path d="M29.5821 25.0298H28.4849V26.1177H29.5821V25.0298Z" fill="#010202"/>
<path d="M7.65387 25.0298H6.47937V26.1177H7.65387V25.0298Z" fill="#F1F1F1"/>
<path d="M6.52864 25.0298H5.4314V26.1177H6.52864V25.0298Z" fill="#F0F0F0"/>
<path d="M5.43026 25.0298H4.33301V26.1177H5.43026V25.0298Z" fill="#D0CFCF"/>
<path d="M4.33297 25.0298H3.23572V26.1177H4.33297V25.0298Z" fill="#919091"/>
<path d="M8.73995 23.9404H7.6427V25.0283H8.73995V23.9404Z" fill="#C7C7C7"/>
<path d="M9.83834 23.9404H8.74109V25.0283H9.83834V23.9404Z" fill="#BCBCBB"/>
<path d="M10.9355 23.9404H9.83826V25.0283H10.9355V23.9404Z" fill="#C9C7C7"/>
<path d="M12.0328 23.9404H10.9355V25.0283H12.0328V23.9404Z" fill="#E0E0DE"/>
<path d="M13.1312 23.9404H12.0339V25.0283H13.1312V23.9404Z" fill="#E0DFDE"/>
<path d="M14.2284 23.9404H13.1311V25.0283H14.2284V23.9404Z" fill="#D2D3D2"/>
<path d="M15.3256 23.9404H14.2284V25.0283H15.3256V23.9404Z" fill="#CBCACA"/>
<path d="M16.4229 23.9404H15.3257V25.0283H16.4229V23.9404Z" fill="#DFDEDD"/>
<path d="M17.5213 23.9404H16.4241V25.0283H17.5213V23.9404Z" fill="#E6E6E6"/>
<path d="M18.6185 23.9404H17.5212V25.0283H18.6185V23.9404Z" fill="#D7D7D6"/>
<path d="M19.7158 23.9404H18.6185V25.0283H19.7158V23.9404Z" fill="#CBC9C9"/>
<path d="M20.8142 23.9404H19.7169V25.0283H20.8142V23.9404Z" fill="#D5C8B9"/>
<path d="M21.9113 23.9404H20.8141V25.0283H21.9113V23.9404Z" fill="#B9A294"/>
<path d="M7.66279 23.9404H6.48828V25.0283H7.66279V23.9404Z" fill="#D7D8D7"/>
<path d="M23.0086 23.9404H21.9114V25.0283H23.0086V23.9404Z" fill="#BDBDBC"/>
<path d="M24.107 23.9404H23.0098V25.0283H24.107V23.9404Z" fill="#C3C2C4"/>
<path d="M25.2043 23.9404H24.1071V25.0283H25.2043V23.9404Z" fill="#BBBBBC"/>
<path d="M26.2971 23.9404H25.1998V25.0283H26.2971V23.9404Z" fill="#CBCAC9"/>
<path d="M27.3864 23.9404H26.2892V25.0283H27.3864V23.9404Z" fill="#EAEAE9"/>
<path d="M28.4837 23.9404H27.3865V25.0283H28.4837V23.9404Z" fill="#010202"/>
<path d="M6.52864 23.9404H5.4314V25.0283H6.52864V23.9404Z" fill="#F5F4F3"/>
<path d="M5.43026 23.9404H4.33301V25.0283H5.43026V23.9404Z" fill="#DADADA"/>
<path d="M4.33297 23.9404H3.23572V25.0283H4.33297V23.9404Z" fill="#D0D0CE"/>
<path d="M3.2358 23.9404H2.13855V25.0283H3.2358V23.9404Z" fill="#797879"/>
<path d="M8.73995 22.8516H7.6427V23.9395H8.73995V22.8516Z" fill="#CDCDCE"/>
<path d="M9.83834 22.8516H8.74109V23.9395H9.83834V22.8516Z" fill="#C2C2C2"/>
<path d="M10.9355 22.8516H9.83826V23.9395H10.9355V22.8516Z" fill="#C3C2C4"/>
<path d="M12.0328 22.8516H10.9355V23.9395H12.0328V22.8516Z" fill="#BFC0BF"/>
<path d="M13.1301 22.8516H12.0328V23.9395H13.1301V22.8516Z" fill="#C3C3C3"/>
<path d="M14.2284 22.8516H13.1311V23.9395H14.2284V22.8516Z" fill="#CFCFCF"/>
<path d="M15.3256 22.8516H14.2284V23.9395H15.3256V22.8516Z" fill="#D7D8D7"/>
<path d="M16.4229 22.8516H15.3257V23.9395H16.4229V22.8516Z" fill="#E0DFDE"/>
<path d="M17.5213 22.8516H16.4241V23.9395H17.5213V22.8516Z" fill="#EFEDEC"/>
<path d="M18.6185 22.8516H17.5212V23.9395H18.6185V22.8516Z" fill="#EFEFEF"/>
<path d="M19.7158 22.8516H18.6185V23.9395H19.7158V22.8516Z" fill="#F1F1F0"/>
<path d="M20.8142 22.8516H19.7169V23.9395H20.8142V22.8516Z" fill="#DCD5CE"/>
<path d="M21.9113 22.8516H20.8141V23.9395H21.9113V22.8516Z" fill="#6B554C"/>
<path d="M7.66279 22.8516H6.48828V23.9395H7.66279V22.8516Z" fill="#DEDEDD"/>
<path d="M23.0086 22.8516H21.9114V23.9395H23.0086V22.8516Z" fill="#BBBBBC"/>
<path d="M24.1059 22.8516H23.0087V23.9395H24.1059V22.8516Z" fill="#CBCAC9"/>
<path d="M25.2043 22.8516H24.1071V23.9395H25.2043V22.8516Z" fill="#C3C3C3"/>
<path d="M26.2971 22.8516H25.1998V23.9395H26.2971V22.8516Z" fill="#EAEAE9"/>
<path d="M27.3864 22.8516H26.2892V23.9395H27.3864V22.8516Z" fill="#010202"/>
<path d="M6.52864 22.8516H5.4314V23.9395H6.52864V22.8516Z" fill="#F5F4F3"/>
<path d="M5.43026 22.8516H4.33301V23.9395H5.43026V22.8516Z" fill="#F3F4F2"/>
<path d="M4.33297 22.8516H3.23572V23.9395H4.33297V22.8516Z" fill="#CAC9C8"/>
<path d="M3.2358 22.8516H2.13855V23.9395H3.2358V22.8516Z" fill="#BFBDBE"/>
<path d="M8.75338 21.7646H7.65613V22.8526H8.75338V21.7646Z" fill="#F3F2F1"/>
<path d="M9.85067 21.7646H8.75342V22.8526H9.85067V21.7646Z" fill="#ECEDEB"/>
<path d="M10.9478 21.7646H9.85059V22.8526H10.9478V21.7646Z" fill="#E5E5E3"/>
<path d="M12.0462 21.7646H10.949V22.8526H12.0462V21.7646Z" fill="#D7D8D7"/>
<path d="M13.1435 21.7646H12.0463V22.8526H13.1435V21.7646Z" fill="#C3C3C3"/>
<path d="M14.2407 21.7646H13.1434V22.8526H14.2407V21.7646Z" fill="#C6C4C5"/>
<path d="M15.3391 21.7646H14.2418V22.8526H15.3391V21.7646Z" fill="#C3C2C4"/>
<path d="M16.4364 21.7646H15.3391V22.8526H16.4364V21.7646Z" fill="#C5C3C4"/>
<path d="M17.5335 21.7646H16.4363V22.8526H17.5335V21.7646Z" fill="#C6C6C5"/>
<path d="M18.6308 21.7646H17.5336V22.8526H18.6308V21.7646Z" fill="#DFDFDE"/>
<path d="M19.7292 21.7646H18.632V22.8526H19.7292V21.7646Z" fill="#F5F4F3"/>
<path d="M20.8265 21.7646H19.7292V22.8526H20.8265V21.7646Z" fill="#CECAC9"/>
<path d="M21.9237 21.7646H20.8264V22.8526H21.9237V21.7646Z" fill="#3B3131"/>
<path d="M7.67743 21.7646H6.50293V22.8526H7.67743V21.7646Z" fill="#F1F2F1"/>
<path d="M23.0221 21.7646H21.9248V22.8526H23.0221V21.7646Z" fill="#7B7779"/>
<path d="M24.1193 21.7646H23.0221V22.8526H24.1193V21.7646Z" fill="#D9D9D9"/>
<path d="M25.2165 21.7646H24.1193V22.8526H25.2165V21.7646Z" fill="#EFEFEE"/>
<path d="M26.288 21.7646H25.2166V22.8526H26.288V21.7646Z" fill="#010202"/>
<path d="M6.54097 21.7646H5.44373V22.8526H6.54097V21.7646Z" fill="#F5F4F3"/>
<path d="M5.44368 21.7646H4.34644V22.8526H5.44368V21.7646Z" fill="#F7F6F6"/>
<path d="M4.3453 21.7646H3.24805V22.8526H4.3453V21.7646Z" fill="#DAD9D9"/>
<path d="M3.24813 21.7646H2.15088V22.8526H3.24813V21.7646Z" fill="#D2D0D0"/>
<path d="M8.75338 20.6768H7.65613V21.7647H8.75338V20.6768Z" fill="#DFDFDE"/>
<path d="M9.85067 20.6768H8.75342V21.7647H9.85067V20.6768Z" fill="#E8E8E7"/>
<path d="M10.9478 20.6768H9.85059V21.7647H10.9478V20.6768Z" fill="#E5E5E3"/>
<path d="M12.0462 20.6768H10.949V21.7647H12.0462V20.6768Z" fill="#ECECEB"/>
<path d="M13.1435 20.6768H12.0463V21.7647H13.1435V20.6768Z" fill="#F0F0F0"/>
<path d="M14.2407 20.6768H13.1434V21.7647H14.2407V20.6768Z" fill="#EFEDEC"/>
<path d="M15.3391 20.6768H14.2418V21.7647H15.3391V20.6768Z" fill="#E1E1DF"/>
<path d="M16.4364 20.6768H15.3391V21.7647H16.4364V20.6768Z" fill="#CBCBCA"/>
<path d="M17.5335 20.6768H16.4363V21.7647H17.5335V20.6768Z" fill="#CBCBCB"/>
<path d="M18.6308 20.6768H17.5336V21.7647H18.6308V20.6768Z" fill="#F1F1F1"/>
<path d="M19.7292 20.6768H18.632V21.7647H19.7292V20.6768Z" fill="#F6F6F5"/>
<path d="M20.8265 20.6768H19.7292V21.7647H20.8265V20.6768Z" fill="#E6E5E3"/>
<path d="M21.9237 20.6768H20.8264V21.7647H21.9237V20.6768Z" fill="#2F2932"/>
<path d="M7.67743 20.6768H6.50293V21.7647H7.67743V20.6768Z" fill="#F1F2F1"/>
<path d="M23.0433 20.6768H21.9248V21.7647H23.0433V20.6768Z" fill="#332E33"/>
<path d="M24.1193 20.6768H23.0221V21.7647H24.1193V20.6768Z" fill="#ECEDEB"/>
<path d="M25.2165 20.6768H24.1193V21.7647H25.2165V20.6768Z" fill="#F5F4F3"/>
<path d="M6.54097 20.6768H5.44373V21.7647H6.54097V20.6768Z" fill="#F5F4F3"/>
<path d="M5.44368 20.6768H4.34644V21.7647H5.44368V20.6768Z" fill="#F7F6F6"/>
<path d="M4.3453 20.6768H3.24805V21.7647H4.3453V20.6768Z" fill="#F2F3F1"/>
<path d="M3.24813 20.6768H2.15088V21.7647H3.24813V20.6768Z" fill="#C7C5C4"/>
<path d="M8.76119 19.5879H7.66394V20.6758H8.76119V19.5879Z" fill="#E8E7E7"/>
<path d="M9.85958 19.5879H8.76233V20.6758H9.85958V19.5879Z" fill="#DFE0DE"/>
<path d="M10.9569 19.5879H9.85962V20.6758H10.9569V19.5879Z" fill="#E8E8E7"/>
<path d="M12.054 19.5879H10.9568V20.6758H12.054V19.5879Z" fill="#E4E5E3"/>
<path d="M13.1524 19.5879H12.0552V20.6758H13.1524V19.5879Z" fill="#CECFCF"/>
<path d="M14.2497 19.5879H13.1525V20.6758H14.2497V19.5879Z" fill="#D1D2D2"/>
<path d="M15.3469 19.5879H14.2496V20.6758H15.3469V19.5879Z" fill="#DCDDDC"/>
<path d="M16.4442 19.5879H15.3469V20.6758H16.4442V19.5879Z" fill="#D9D9D9"/>
<path d="M17.5426 19.5879H16.4453V20.6758H17.5426V19.5879Z" fill="#E8E7E7"/>
<path d="M18.6399 19.5879H17.5426V20.6758H18.6399V19.5879Z" fill="#F4F3F2"/>
<path d="M19.737 19.5879H18.6398V20.6758H19.737V19.5879Z" fill="#EBEBEA"/>
<path d="M20.8354 19.5879H19.7382V20.6758H20.8354V19.5879Z" fill="#DFDFDE"/>
<path d="M21.9327 19.5879H20.8354V20.6758H21.9327V19.5879Z" fill="#555057"/>
<path d="M7.68635 19.5879H6.51184V20.6758H7.68635V19.5879Z" fill="#E6E6E6"/>
<path d="M23.0433 19.5879H21.9326V20.6758H23.0433V19.5879Z" fill="#2C2120"/>
<path d="M24.1283 19.5879H23.0433V20.6758H24.1283V19.5879Z" fill="#BFBDBF"/>
<path d="M25.2255 19.5879H24.1283V20.6758H25.2255V19.5879Z" fill="#C8C6C5"/>
<path d="M6.54989 19.5879H5.45264V20.6758H6.54989V19.5879Z" fill="#ECEDED"/>
<path d="M5.4515 19.5879H4.35425V20.6758H5.4515V19.5879Z" fill="#F7F6F6"/>
<path d="M4.35433 19.5879H3.25708V20.6758H4.35433V19.5879Z" fill="#F9F7F7"/>
<path d="M3.25704 19.5879H2.15979V20.6758H3.25704V19.5879Z" fill="#7C7C7C"/>
<path d="M8.77462 18.5H7.67737V19.5879H8.77462V18.5Z" fill="#E0E1E1"/>
<path d="M9.87191 18.5H8.77466V19.5879H9.87191V18.5Z" fill="#E5E6E6"/>
<path d="M10.9691 18.5H9.87183V19.5879H10.9691V18.5Z" fill="#E6E6E6"/>
<path d="M12.0675 18.5H10.9702V19.5879H12.0675V18.5Z" fill="#E8E9E9"/>
<path d="M13.1648 18.5H12.0675V19.5879H13.1648V18.5Z" fill="#E7E7E6"/>
<path d="M14.262 18.5H13.1648V19.5879H14.262V18.5Z" fill="#DCDDDC"/>
<path d="M15.3603 18.5H14.2631V19.5879H15.3603V18.5Z" fill="#DCDDDC"/>
<path d="M16.4576 18.5H15.3604V19.5879H16.4576V18.5Z" fill="#D0CFCF"/>
<path d="M17.5549 18.5H16.4576V19.5879H17.5549V18.5Z" fill="#C2C1C2"/>
<path d="M18.6521 18.5H17.5548V19.5879H18.6521V18.5Z" fill="#CBCACA"/>
<path d="M19.7504 18.5H18.6532V19.5879H19.7504V18.5Z" fill="#D0D1D1"/>
<path d="M20.8477 18.5H19.7505V19.5879H20.8477V18.5Z" fill="#DFDFDE"/>
<path d="M21.945 18.5H20.8478V19.5879H21.945V18.5Z" fill="#827D80"/>
<path d="M7.69977 18.5H6.52527V19.5879H7.69977V18.5Z" fill="#E6E6E6"/>
<path d="M23.0433 18.5H21.946V19.5879H23.0433V18.5Z" fill="#221C20"/>
<path d="M24.1406 18.5H23.0433V19.5879H24.1406V18.5Z" fill="#5C5B5E"/>
<path d="M25.2166 18.5H24.1406V19.5879H25.2166V18.5Z" fill="#010202"/>
<path d="M6.56221 18.5H5.46497V19.5879H6.56221V18.5Z" fill="#DFE3E3"/>
<path d="M5.46492 18.5H4.36768V19.5879H5.46492V18.5Z" fill="#E7E2D8"/>
<path d="M4.36666 18.5H3.26941V19.5879H4.36666V18.5Z" fill="#F9F7F7"/>
<path d="M3.26937 18.5H2.17212V19.5879H3.26937V18.5Z" fill="#BFBDBE"/>
<path d="M8.77462 17.4121H7.67737V18.5H8.77462V17.4121Z" fill="#DFE4E5"/>
<path d="M9.87191 17.4121H8.77466V18.5H9.87191V17.4121Z" fill="#E5E6E6"/>
<path d="M10.9691 17.4121H9.87183V18.5H10.9691V17.4121Z" fill="#E3E5E4"/>
<path d="M12.0675 17.4121H10.9702V18.5H12.0675V17.4121Z" fill="#E3E3E3"/>
<path d="M13.1648 17.4121H12.0675V18.5H13.1648V17.4121Z" fill="#E7E7E6"/>
<path d="M14.262 17.4121H13.1648V18.5H14.262V17.4121Z" fill="#E7E7E7"/>
<path d="M15.3603 17.4121H14.2631V18.5H15.3603V17.4121Z" fill="#E8E9E9"/>
<path d="M16.4576 17.4121H15.3604V18.5H16.4576V17.4121Z" fill="#DEE0DF"/>
<path d="M17.5549 17.4121H16.4576V18.5H17.5549V17.4121Z" fill="#D2D3D2"/>
<path d="M18.6521 17.4121H17.5548V18.5H18.6521V17.4121Z" fill="#C3C4C4"/>
<path d="M19.7504 17.4121H18.6532V18.5H19.7504V17.4121Z" fill="#C7C8C8"/>
<path d="M20.8477 17.4121H19.7505V18.5H20.8477V17.4121Z" fill="#CCCCCD"/>
<path d="M21.945 17.4121H20.8478V18.5H21.945V17.4121Z" fill="#848385"/>
<path d="M7.69977 17.4121H6.52527V18.5H7.69977V17.4121Z" fill="#E5EAEA"/>
<path d="M23.0433 17.4121H21.946V18.5H23.0433V17.4121Z" fill="#302E38"/>
<path d="M24.1406 17.4121H23.0433V18.5H24.1406V17.4121Z" fill="#010202"/>
<path d="M6.56221 17.4121H5.46497V18.5H6.56221V17.4121Z" fill="#E5CEBE"/>
<path d="M5.46492 17.4121H4.36768V18.5H5.46492V17.4121Z" fill="#C7916B"/>
<path d="M4.36666 17.4121H3.26941V18.5H4.36666V17.4121Z" fill="#E4E1DE"/>
<path d="M3.26937 17.4121H2.17212V18.5H3.26937V17.4121Z" fill="#F0EFEF"/>
<path d="M8.77462 16.3232H7.67737V17.4112H8.77462V16.3232Z" fill="#F7F6F6"/>
<path d="M9.87191 16.3232H8.77466V17.4112H9.87191V16.3232Z" fill="#EBECED"/>
<path d="M10.9691 16.3232H9.87183V17.4112H10.9691V16.3232Z" fill="#DCE1E1"/>
<path d="M12.0675 16.3232H10.9702V17.4112H12.0675V16.3232Z" fill="#D7DCDE"/>
<path d="M13.1648 16.3232H12.0675V17.4112H13.1648V16.3232Z" fill="#DADEDF"/>
<path d="M14.262 16.3232H13.1648V17.4112H14.262V16.3232Z" fill="#E3E7E8"/>
<path d="M15.3603 16.3232H14.2631V17.4112H15.3603V16.3232Z" fill="#E3E3E3"/>
<path d="M16.4576 16.3232H15.3604V17.4112H16.4576V16.3232Z" fill="#E5E6E6"/>
<path d="M17.5549 16.3232H16.4576V17.4112H17.5549V16.3232Z" fill="#CCCCCD"/>
<path d="M18.6521 16.3232H17.5548V17.4112H18.6521V16.3232Z" fill="#D2D3D2"/>
<path d="M19.7504 16.3232H18.6532V17.4112H19.7504V16.3232Z" fill="#D5D7D6"/>
<path d="M20.8477 16.3232H19.7505V17.4112H20.8477V16.3232Z" fill="#CCCCCD"/>
<path d="M21.945 16.3232H20.8478V17.4112H21.945V16.3232Z" fill="#CFCECE"/>
<path d="M7.69977 16.3232H6.52527V17.4112H7.69977V16.3232Z" fill="#F7F6F7"/>
<path d="M23.0433 16.3232H21.946V17.4112H23.0433V16.3232Z" fill="#383742"/>
<path d="M24.1406 16.3232H23.0433V17.4112H24.1406V16.3232Z" fill="#010202"/>
<path d="M6.56221 16.3232H5.46497V17.4112H6.56221V16.3232Z" fill="#EBEAEA"/>
<path d="M5.46492 16.3232H4.36768V17.4112H5.46492V16.3232Z" fill="#D0B29D"/>
<path d="M4.36666 16.3232H3.26941V17.4112H4.36666V16.3232Z" fill="#EAE5DF"/>
<path d="M3.26937 16.3232H2.17212V17.4112H3.26937V16.3232Z" fill="#F4F3F3"/>
<path d="M8.77462 15.2354H7.67737V16.3233H8.77462V15.2354Z" fill="#F4F4F4"/>
<path d="M9.87191 15.2354H8.77466V16.3233H9.87191V15.2354Z" fill="#EBECED"/>
<path d="M10.9691 15.2354H9.87183V16.3233H10.9691V15.2354Z" fill="#D6DBDB"/>
<path d="M12.0675 15.2354H10.9702V16.3233H12.0675V15.2354Z" fill="#E1E3E2"/>
<path d="M13.1648 15.2354H12.0675V16.3233H13.1648V15.2354Z" fill="#E3E3E3"/>
<path d="M14.262 15.2354H13.1648V16.3233H14.262V15.2354Z" fill="#DFE1E0"/>
<path d="M15.3603 15.2354H14.2631V16.3233H15.3603V15.2354Z" fill="#D7DDDE"/>
<path d="M16.4576 15.2354H15.3604V16.3233H16.4576V15.2354Z" fill="#DFE4E5"/>
<path d="M17.5549 15.2354H16.4576V16.3233H17.5549V15.2354Z" fill="#E4E8E9"/>
<path d="M18.6521 15.2354H17.5548V16.3233H18.6521V15.2354Z" fill="#E2E6E7"/>
<path d="M19.7504 15.2354H18.6532V16.3233H19.7504V15.2354Z" fill="#DFE0DE"/>
<path d="M20.8477 15.2354H19.7505V16.3233H20.8477V15.2354Z" fill="#E1E2E0"/>
<path d="M21.945 15.2354H20.8478V16.3233H21.945V15.2354Z" fill="#F6F6F6"/>
<path d="M7.69977 15.2354H6.52527V16.3233H7.69977V15.2354Z" fill="#F4F4F4"/>
<path d="M23.0433 15.2354H21.946V16.3233H23.0433V15.2354Z" fill="#54545C"/>
<path d="M24.1406 15.2354H23.0433V16.3233H24.1406V15.2354Z" fill="#1C1517"/>
<path d="M6.56221 15.2354H5.46497V16.3233H6.56221V15.2354Z" fill="#F4F4F4"/>
<path d="M5.46492 15.2354H4.36768V16.3233H5.46492V15.2354Z" fill="#F4F4F4"/>
<path d="M4.36666 15.2354H3.26941V16.3233H4.36666V15.2354Z" fill="#F4F4F4"/>
<path d="M3.26937 15.2354H2.17212V16.3233H3.26937V15.2354Z" fill="#F4F4F4"/>
<path d="M8.77462 14.1475H7.67737V15.2354H8.77462V14.1475Z" fill="#F7F6F5"/>
<path d="M9.87191 14.1475H8.77466V15.2354H9.87191V14.1475Z" fill="#F3F4F4"/>
<path d="M10.9691 14.1475H9.87183V15.2354H10.9691V14.1475Z" fill="#E9EBEB"/>
<path d="M12.0675 14.1475H10.9702V15.2354H12.0675V14.1475Z" fill="#DCE0DF"/>
<path d="M13.1648 14.1475H12.0675V15.2354H13.1648V14.1475Z" fill="#DFE0DE"/>
<path d="M14.262 14.1475H13.1648V15.2354H14.262V14.1475Z" fill="#E9E9E8"/>
<path d="M15.3603 14.1475H14.2631V15.2354H15.3603V14.1475Z" fill="#F7F6F7"/>
<path d="M16.4576 14.1475H15.3604V15.2354H16.4576V14.1475Z" fill="#F7F6F7"/>
<path d="M17.5549 14.1475H16.4576V15.2354H17.5549V14.1475Z" fill="#F7F6F7"/>
<path d="M18.6521 14.1475H17.5548V15.2354H18.6521V14.1475Z" fill="#ECEDEA"/>
<path d="M19.7504 14.1475H18.6532V15.2354H19.7504V14.1475Z" fill="#DFE3E2"/>
<path d="M20.8477 14.1475H19.7505V15.2354H20.8477V14.1475Z" fill="#F3F3F3"/>
<path d="M21.945 14.1475H20.8478V15.2354H21.945V14.1475Z" fill="#DCDBDB"/>
<path d="M7.69977 14.1475H6.52527V15.2354H7.69977V14.1475Z" fill="#F7F6F5"/>
<path d="M23.0433 14.1475H21.946V15.2354H23.0433V14.1475Z" fill="#414043"/>
<path d="M24.1406 14.1475H23.0433V15.2354H24.1406V14.1475Z" fill="#2E2A30"/>
<path d="M6.56221 14.1475H5.46497V15.2354H6.56221V14.1475Z" fill="#F7F6F5"/>
<path d="M5.46492 14.1475H4.36768V15.2354H5.46492V14.1475Z" fill="#F7F6F5"/>
<path d="M4.36666 14.1475H3.26941V15.2354H4.36666V14.1475Z" fill="#F7F6F5"/>
<path d="M3.26937 14.1475H2.17212V15.2354H3.26937V14.1475Z" fill="#D2D0D1"/>
<path d="M8.7701 13.0596H7.67285V14.1475H8.7701V13.0596Z" fill="#F7F6F7"/>
<path d="M9.86739 13.0596H8.77014V14.1475H9.86739V13.0596Z" fill="#F7F6F7"/>
<path d="M10.9658 13.0596H9.86853V14.1475H10.9658V13.0596Z" fill="#F7F6F7"/>
<path d="M12.0631 13.0596H10.9658V14.1475H12.0631V13.0596Z" fill="#F7F6F7"/>
<path d="M13.1602 13.0596H12.063V14.1475H13.1602V13.0596Z" fill="#F0F1F2"/>
<path d="M14.2575 13.0596H13.1603V14.1475H14.2575V13.0596Z" fill="#F7F6F6"/>
<path d="M15.3559 13.0596H14.2587V14.1475H15.3559V13.0596Z" fill="#F4F4F4"/>
<path d="M16.4531 13.0596H15.3558V14.1475H16.4531V13.0596Z" fill="#F4F4F4"/>
<path d="M17.5504 13.0596H16.4531V14.1475H17.5504V13.0596Z" fill="#F0F1F0"/>
<path d="M18.6488 13.0596H17.5515V14.1475H18.6488V13.0596Z" fill="#F0F1F1"/>
<path d="M19.7461 13.0596H18.6488V14.1475H19.7461V13.0596Z" fill="#F5F4F4"/>
<path d="M20.8432 13.0596H19.746V14.1475H20.8432V13.0596Z" fill="#F7F6F5"/>
<path d="M7.69526 13.0596H6.52075V14.1475H7.69526V13.0596Z" fill="#ECEBEC"/>
<path d="M6.5577 13.0596H5.46045V14.1475H6.5577V13.0596Z" fill="#B8B7B7"/>
<path d="M9.87191 11.9702H8.77466V13.0581H9.87191V11.9702Z" fill="#A0A09F"/>
<path d="M10.9691 11.9702H9.87183V13.0581H10.9691V11.9702Z" fill="#D9D8D7"/>
<path d="M12.0675 11.9702H10.9702V13.0581H12.0675V11.9702Z" fill="#F7F6F7"/>
<path d="M13.1648 11.9702H12.0675V13.0581H13.1648V11.9702Z" fill="#F7F6F6"/>
<path d="M14.262 11.9702H13.1648V13.0581H14.262V11.9702Z" fill="#F7F6F6"/>
<path d="M15.3603 11.9702H14.2631V13.0581H15.3603V11.9702Z" fill="#F4F4F4"/>
<path d="M16.4576 11.9702H15.3604V13.0581H16.4576V11.9702Z" fill="#F7F6F6"/>
<path d="M17.5549 11.9702H16.4576V13.0581H17.5549V11.9702Z" fill="#F7F6F5"/>
<path d="M18.6521 11.9702H17.5548V13.0581H18.6521V11.9702Z" fill="#F5F4F3"/>
<path d="M19.7504 11.9702H18.6532V13.0581H19.7504V11.9702Z" fill="#F5F4F4"/>
<path d="M20.8477 11.9702H19.7505V13.0581H20.8477V11.9702Z" fill="#E6E5E3"/>
<path d="M13.1648 10.8823H12.0675V11.9702H13.1648V10.8823Z" fill="#898A8A"/>
<path d="M14.262 10.8823H13.1648V11.9702H14.262V10.8823Z" fill="#C3C2C2"/>
<path d="M15.3603 10.8823H14.2631V11.9702H15.3603V10.8823Z" fill="#F2F1F1"/>
<path d="M16.4576 10.8823H15.3604V11.9702H16.4576V10.8823Z" fill="#F7F6F6"/>
<path d="M17.5549 10.8823H16.4576V11.9702H17.5549V10.8823Z" fill="#F7F6F5"/>
<path d="M18.6521 10.8823H17.5548V11.9702H18.6521V10.8823Z" fill="#F7F6F5"/>
<path d="M19.7504 10.8823H18.6532V11.9702H19.7504V10.8823Z" fill="#F7F6F5"/>
<path d="M16.4576 9.79443H15.3604V10.8823H16.4576V9.79443Z" fill="#767675"/>
<path d="M17.5549 9.79443H16.4576V10.8823H17.5549V9.79443Z" fill="#B1AFAE"/>
<path d="M18.6521 9.79443H17.5548V10.8823H18.6521V9.79443Z" fill="#E8E6E5"/>
<path d="M19.7504 9.79443H18.6532V10.8823H19.7504V9.79443Z" fill="#F7F6F5"/>
<path d="M2.12508 22.8516H1.02783V23.9395H2.12508V22.8516Z" fill="#646565"/>
<path d="M2.13741 21.7646H1.04016V22.8526H2.13741V21.7646Z" fill="#989796"/>
<path d="M2.13741 20.6768H1.04016V21.7647H2.13741V20.6768Z" fill="#989796"/>
<path d="M25.2379 15.2354H24.1406V16.3233H25.2379V15.2354Z" fill="#010202"/>
<path d="M25.2379 14.1475H24.1406V15.2354H25.2379V14.1475Z" fill="#010202"/>
<path d="M24.1406 13.0596H23.0433V14.1475H24.1406V13.0596Z" fill="#36343E"/>
<path d="M25.2379 13.0596H24.1406V14.1475H25.2379V13.0596Z" fill="#382B27"/>
<path d="M26.335 13.0596H25.2378V14.1475H26.335V13.0596Z" fill="#010202"/>
<path d="M24.1406 11.9702H23.0433V13.0581H24.1406V11.9702Z" fill="#CBAD8C"/>
<path d="M25.2379 11.9702H24.1406V13.0581H25.2379V11.9702Z" fill="#946644"/>
<path d="M26.335 11.9702H25.2378V13.0581H26.335V11.9702Z" fill="#010202"/>
<path d="M24.1406 10.8823H23.0433V11.9702H24.1406V10.8823Z" fill="#695C57"/>
<path d="M25.2379 10.8823H24.1406V11.9702H25.2379V10.8823Z" fill="#271D1F"/>
<path d="M26.335 10.8823H25.2378V11.9702H26.335V10.8823Z" fill="#010202"/>
<path d="M24.1406 9.79443H23.0433V10.8823H24.1406V9.79443Z" fill="#433F41"/>
<path d="M25.2379 9.79443H24.1406V10.8823H25.2379V9.79443Z" fill="#B08C69"/>
<path d="M26.335 9.79443H25.2378V10.8823H26.335V9.79443Z" fill="#010202"/>
<path d="M24.1406 8.70557H23.0433V9.79348H24.1406V8.70557Z" fill="#3D3A3A"/>
<path d="M25.2379 8.70557H24.1406V9.79348H25.2379V8.70557Z" fill="#8D7A6C"/>
<path d="M26.335 8.70557H25.2378V9.79348H26.335V8.70557Z" fill="#010202"/>
<path d="M25.2379 7.61768H24.1406V8.70558H25.2379V7.61768Z" fill="#6C625C"/>
<path d="M26.335 7.61768H25.2378V8.70558H26.335V7.61768Z" fill="#50382A"/>
<path d="M27.4334 7.61768H26.3362V8.70558H27.4334V7.61768Z" fill="#010202"/>
<path d="M25.2379 6.52979H24.1406V7.61769H25.2379V6.52979Z" fill="#474547"/>
<path d="M26.335 6.52979H25.2378V7.61769H26.335V6.52979Z" fill="#927256"/>
<path d="M27.4334 6.52979H26.3362V7.61769H27.4334V6.52979Z" fill="#010202"/>
<path d="M25.2379 5.44043H24.1406V6.52834H25.2379V5.44043Z" fill="#383638"/>
<path d="M26.335 5.44043H25.2378V6.52834H26.335V5.44043Z" fill="#B59578"/>
<path d="M27.4334 5.44043H26.3362V6.52834H27.4334V5.44043Z" fill="#010202"/>
<path d="M26.335 4.35254H25.2378V5.44045H26.335V4.35254Z" fill="#9E866E"/>
<path d="M27.4334 4.35254H26.3362V5.44045H27.4334V4.35254Z" fill="#694E3B"/>
<path d="M28.5307 4.35254H27.4335V5.44045H28.5307V4.35254Z" fill="#010202"/>
<path d="M26.335 3.26465H25.2378V4.35256H26.335V3.26465Z" fill="#674C3E"/>
<path d="M27.4334 3.26465H26.3362V4.35256H27.4334V3.26465Z" fill="#906645"/>
<path d="M28.5307 3.26465H27.4335V4.35256H28.5307V3.26465Z" fill="#010202"/>
<path d="M26.335 2.17676H25.2378V3.26467H26.335V2.17676Z" fill="#48413F"/>
<path d="M27.4334 2.17676H26.3362V3.26467H27.4334V2.17676Z" fill="#29252C"/>
<path d="M28.5307 2.17676H27.4335V3.26467H28.5307V2.17676Z" fill="#010202"/>
<path d="M27.4334 1.08789H26.3362V2.1758H27.4334V1.08789Z" fill="#362D2A"/>
<path d="M28.5307 1.08789H27.4335V2.1758H28.5307V1.08789Z" fill="#010202"/>
<path d="M2.16646 17.4121H1.06921V18.5H2.16646V17.4121Z" fill="#464646"/>
<path d="M2.16646 16.3232H1.06921V17.4112H2.16646V16.3232Z" fill="#6E6E6D"/>
<path d="M2.16646 15.2354H1.06921V16.3233H2.16646V15.2354Z" fill="#C8C6C7"/>
<path d="M2.16646 14.1475H1.06921V15.2354H2.16646V14.1475Z" fill="#9C9A9A"/>
<path d="M5.46163 13.0596H4.36438V14.1475H5.46163V13.0596Z" fill="#010202"/>
<path d="M4.36434 13.0596H3.26709V14.1475H4.36434V13.0596Z" fill="#010202"/>
<path d="M3.26717 13.0596H2.16992V14.1475H3.26717V13.0596Z" fill="#010202"/>
<path d="M8.7679 11.9702H7.67065V13.0581H8.7679V11.9702Z" fill="#010202"/>
<path d="M7.69301 11.9702H5.46045V13.0581H7.69301V11.9702Z" fill="#010202"/>
<path d="M10.9669 10.8823H8.76794V11.9702H10.9669V10.8823Z" fill="#010202"/>
<path d="M12.0642 10.8823H10.9669V11.9702H12.0642V10.8823Z" fill="#010202"/>
<path d="M13.1626 9.79443H12.0653V10.8823H13.1626V9.79443Z" fill="#010202"/>
<path d="M14.2597 9.79443H13.1625V10.8823H14.2597V9.79443Z" fill="#010202"/>
<path d="M15.357 9.79443H14.2598V10.8823H15.357V9.79443Z" fill="#010202"/>
<path d="M17.5526 8.70557H15.3558V9.79348H17.5526V8.70557Z" fill="#010202"/>
<path d="M18.6499 8.70557H17.5526V9.79348H18.6499V8.70557Z" fill="#010202"/>
<path d="M19.7472 8.70557H18.6499V9.79348H19.7472V8.70557Z" fill="#010202"/>
<path d="M22.1129 13.0596H20.8444V14.1475H22.1129V13.0596Z" fill="#010202"/>
<path d="M22.1174 11.9702H20.8489V13.0581H22.1174V11.9702Z" fill="#010202"/>
<path d="M20.8477 10.8823H19.7505V11.9702H20.8477V10.8823Z" fill="#010202"/>
<path d="M20.8477 9.79443H19.7505V10.8823H20.8477V9.79443Z" fill="#010202"/>
<path d="M23.0467 13.0596H21.9495V14.1475H23.0467V13.0596Z" fill="#010202"/>
<path d="M23.0467 11.9702H21.9495V13.0581H23.0467V11.9702Z" fill="#010202"/>
<path d="M23.0467 10.8823H21.9495V11.9702H23.0467V10.8823Z" fill="#010202"/>
<path d="M23.0467 9.79443H21.9495V10.8823H23.0467V9.79443Z" fill="#010202"/>
<path d="M23.0467 8.70557H21.9495V9.79348H23.0467V8.70557Z" fill="#010202"/>
<path d="M24.1406 7.61768H23.0433V8.70558H24.1406V7.61768Z" fill="#010202"/>
<path d="M24.1406 6.52979H23.0433V7.61769H24.1406V6.52979Z" fill="#010202"/>
<path d="M24.1406 5.44043H23.0433V6.52834H24.1406V5.44043Z" fill="#010202"/>
<path d="M25.2379 4.35254H24.1406V5.44045H25.2379V4.35254Z" fill="#010202"/>
<path d="M25.2379 3.26465H24.1406V4.35256H25.2379V3.26465Z" fill="#010202"/>
<path d="M25.2379 2.17676H24.1406V3.26467H25.2379V2.17676Z" fill="#010202"/>
<path d="M26.335 1.08789H25.2378V2.1758H26.335V1.08789Z" fill="#010202"/>
<path d="M27.4334 0H26.3362V1.08791H27.4334V0Z" fill="#010202"/>
<path d="M26.288 20.6768H25.2166V21.7647H26.288V20.6768Z" fill="#010202"/>
<path d="M26.288 19.5879H25.2166V20.6758H26.288V19.5879Z" fill="#010202"/>
<path d="M25.2177 17.4121H24.1283V18.5H25.2177V17.4121Z" fill="#010202"/>
<path d="M16.4039 35.9121H15.3066V37H16.4039V35.9121Z" fill="#010202"/>
<path d="M17.5023 35.9121H16.405V37H17.5023V35.9121Z" fill="#010202"/>
<path d="M18.6085 34.8232H17.5112V35.9112H18.6085V34.8232Z" fill="#010202"/>
<path d="M19.7056 34.8232H18.6084V35.9112H19.7056V34.8232Z" fill="#010202"/>
<path d="M20.7951 33.7354H19.6979V34.8233H20.7951V33.7354Z" fill="#010202"/>
<path d="M21.8924 33.7354H20.7952V34.8233H21.8924V33.7354Z" fill="#010202"/>
<path d="M22.9896 33.7354H21.8923V34.8233H22.9896V33.7354Z" fill="#010202"/>
<path d="M24.0869 33.7354H22.9896V34.8233H24.0869V33.7354Z" fill="#010202"/>
<path d="M25.1853 32.6475H24.088V33.7354H25.1853V32.6475Z" fill="#010202"/>
<path d="M26.2824 32.6475H25.1852V33.7354H26.2824V32.6475Z" fill="#010202"/>
<path d="M27.3797 32.6475H26.2825V33.7354H27.3797V32.6475Z" fill="#010202"/>
<path d="M28.4814 31.5596H27.3842V32.6475H28.4814V31.5596Z" fill="#010202"/>
<path d="M29.5709 31.5596H28.4736V32.6475H29.5709V31.5596Z" fill="#010202"/>
<path d="M30.668 31.5596H29.5708V32.6475H30.668V31.5596Z" fill="#010202"/>
<path d="M31.7664 31.5596H30.6692V32.6475H31.7664V31.5596Z" fill="#010202"/>
<path d="M32.857 30.4702H31.7598V31.5581H32.857V30.4702Z" fill="#010202"/>
<path d="M15.3178 35.9121H14.2206V37H15.3178V35.9121Z" fill="#010202"/>
</svg>
