<svg width="1236" height="496" viewBox="0 0 1236 496" fill="none" xmlns="http://www.w3.org/2000/svg">
<path d="M1226.85 254.285H1235.76L1230.38 366.886H1021.89V354.612H1027.09C1039.59 354.612 1047.63 352.21 1051.22 347.408C1054.94 342.605 1057.29 336.557 1058.28 329.263C1059.27 321.792 1059.76 302.937 1059.76 272.696V95.2574C1059.76 67.6854 1059.21 49.5413 1058.09 40.8249C1057.1 32.1086 1054.69 26.0606 1050.85 22.6808C1047.14 19.1231 1039.22 17.3443 1027.09 17.3443V5.07031H1206.99L1212.93 95.2574H1204.2C1200.24 69.9979 1195.35 52.1206 1189.53 41.6254C1183.84 30.9524 1177.03 24.2818 1169.11 21.6135C1161.19 18.7674 1148.44 17.3443 1130.87 17.3443H1095.97V169.168H1122.7C1134.95 169.168 1143.49 167.656 1148.32 164.632C1153.27 161.608 1156.49 157.072 1157.97 151.024C1159.58 144.798 1160.39 132.791 1160.39 115.002H1169.11V238.81H1160.39C1160.39 218.709 1159.21 205.278 1156.86 198.519C1154.51 191.581 1151.04 187.134 1146.46 185.178C1142.01 183.043 1134.4 181.976 1123.63 181.976H1095.97V267.627C1095.97 310.497 1097.88 335.756 1101.72 343.405C1105.56 350.876 1115.89 354.612 1132.72 354.612H1151.48C1164.72 354.612 1175.61 352.21 1184.15 347.408C1192.69 342.427 1200.8 332.376 1208.47 317.256C1216.27 301.958 1222.4 280.968 1226.85 254.285Z" fill="white"/>
<path d="M960.832 5.07031H1077.79V17.3443H1071.48C1059.1 17.3443 1051 18.8563 1047.16 21.8803C1043.32 24.7265 1040.79 30.1519 1039.55 38.1567C1038.31 46.1615 1037.69 65.195 1037.69 95.2574V331.665C1037.69 362.261 1036.83 385.564 1035.09 401.573C1033.48 417.583 1028.84 433.148 1021.17 448.268C1013.5 463.566 1003.22 475.306 990.351 483.489C977.603 491.671 962.75 495.763 945.794 495.763C926.733 495.763 912.067 490.693 901.794 480.554C891.521 470.592 886.385 458.674 886.385 444.799C886.385 436.438 888.241 429.412 891.954 423.72C895.544 418.027 899.999 415.181 905.321 415.181C910.767 415.181 915.347 417.761 919.06 422.919C922.649 428.078 924.444 434.393 924.444 441.864C924.444 446.311 923.701 450.936 922.216 455.739C920.854 460.008 920.174 463.21 920.174 465.345C920.174 471.037 922.525 475.484 927.229 478.686C931.932 481.888 937.749 483.489 944.68 483.489C958.79 483.489 970.671 476.996 980.325 464.01C989.979 451.203 995.797 435.994 997.777 418.383C999.757 400.951 1000.75 372.044 1000.75 331.665V95.2574C1000.75 66.4402 1000.13 47.8514 998.891 39.4908C997.777 31.1303 995.301 25.3491 991.465 22.1472C987.752 18.9452 979.521 17.3443 966.773 17.3443H960.832V5.07031Z" fill="white"/>
<path d="M925.951 233.472H830.34L823.842 256.419C814.188 289.684 809.361 311.386 809.361 321.525C809.361 332.376 811.898 340.647 816.973 346.34C822.171 351.854 828.792 354.611 836.837 354.611V366.885H766.794L762.019 354.611C773.158 352.121 781.451 346.518 786.897 337.801C792.342 328.907 798.902 310.318 806.576 282.035C807.195 279.366 810.165 269.049 815.487 251.083L888.635 0H895.875L979.976 287.371L991.487 325.26C994.086 333.799 997.552 340.558 1001.88 345.539C1006.34 350.342 1012.96 353.366 1021.75 354.611V366.885H922.795V354.611C934.924 354.611 943.093 353.366 947.301 350.876C951.633 348.207 953.799 343.049 953.799 335.4C953.799 331.486 950.953 319.835 945.259 300.446L925.951 233.472ZM922.795 221.465L878.238 67.2401L833.867 221.465H922.795Z" fill="white"/>
<path d="M833.147 366.885H765.383C753.378 354.789 734.998 323.126 710.244 271.895C702.323 255.53 694.092 239.876 685.552 224.934C677.012 209.813 671.133 200.652 667.915 197.451C664.697 194.071 659.684 192.381 652.877 192.381H642.852V272.695C642.852 301.157 643.285 319.835 644.151 328.729C645.141 337.445 647.617 343.938 651.577 348.207C655.662 352.476 663.397 354.611 674.784 354.611H686.852V366.885H566.362V354.611H574.531C585.299 354.611 592.725 352.654 596.81 348.741C601.018 344.827 603.679 338.779 604.793 330.597C605.907 322.236 606.464 302.936 606.464 272.695V95.2563C606.464 66.4392 605.907 47.8503 604.793 39.4898C603.679 31.1293 601.203 25.348 597.367 22.1461C593.53 18.9442 585.237 17.3433 572.489 17.3433H568.219V5.06929L604.793 5.06836C628.965 5.06835 655.253 5.06887 669.363 5.06887C692.176 5.06887 707.142 6.00529 722.118 12.4091C737.218 18.8129 747.189 26.5043 756.472 41.0908C765.754 55.6772 770.396 73.1098 770.396 93.3886C770.396 117.047 764.331 137.237 752.202 153.958C740.072 170.679 722.25 181.085 698.733 185.177C709.254 192.47 726.21 218.797 749.603 264.157C768.663 300.979 783.639 325.082 794.531 336.467C805.422 347.851 818.294 353.899 833.147 354.611V366.885ZM642.852 180.107C652.134 179.751 661.727 179.217 671.628 178.506C681.53 177.794 690.132 175.838 697.434 172.636C704.736 169.434 710.615 164.809 715.071 158.761C719.65 152.535 723.24 144.441 725.839 134.48C728.438 124.518 729.738 112.244 729.738 97.6578C729.738 72.2204 725.282 51.8527 716.371 36.5547C707.583 21.2567 693.84 14.675 664.135 14.675C659.556 14.675 648.926 14.675 642.852 14.675V180.107Z" fill="white"/>
<path d="M504.005 17.3443V5.07031H619.11V17.3443H613.726C601.349 17.3443 593.243 18.8563 589.406 21.8803C585.569 24.7265 582.97 30.1519 581.608 38.1567C580.371 46.1615 579.752 65.195 579.752 95.2574V272.696C579.752 301.158 580.185 319.836 581.051 328.73C582.041 337.446 584.517 343.939 588.477 348.208C592.562 352.477 600.297 354.612 611.684 354.612H619.11V366.886H504.005V354.612H511.431C522.199 354.612 529.625 352.655 533.71 348.742C537.918 344.828 540.579 338.78 541.693 330.598C542.807 322.237 543.364 302.937 543.364 272.696V95.2574C543.364 66.4402 542.807 47.8514 541.693 39.4908C540.579 31.1303 538.103 25.3491 534.267 22.1472C530.43 18.9452 522.137 17.3443 509.389 17.3443H504.005Z" fill="white"/>
<path d="M473.951 5.07031H558.053V17.3443C546.913 18.4116 538.559 22.0582 532.989 28.2841C527.543 34.3322 524.202 41.1807 522.964 48.8297C521.726 56.4787 521.107 71.332 521.107 93.3896V213.728C521.107 244.502 520.241 267.36 518.508 282.302C516.899 297.244 512.072 311.92 504.027 326.328C496.106 340.737 484.905 352.21 470.424 360.749C455.943 369.287 439.234 373.557 420.298 373.557C397.895 373.557 378.897 368.131 363.302 357.28C347.831 346.251 336.753 332.11 330.07 314.855C323.51 297.422 320.23 274.12 320.23 244.947L320.416 207.858V95.2574C320.416 66.4402 319.797 47.8514 318.559 39.4908C317.445 31.1303 314.97 25.3491 311.133 22.1472C307.42 18.9452 299.19 17.3443 286.441 17.3443H280.686V5.07031H395.606V17.3443H390.593C378.216 17.3443 370.109 18.8563 366.272 21.8803C362.436 24.7265 359.836 30.1519 358.475 38.1567C357.237 46.1615 356.618 65.195 356.618 95.2574V209.192C356.618 248.682 357.856 276.699 360.331 293.242C362.931 309.785 370.109 324.283 381.867 336.735C393.625 349.009 409.282 355.146 428.838 355.146C444.185 355.146 458.109 351.054 470.61 342.872C483.234 334.511 492.579 324.194 498.643 311.92C504.832 299.468 508.607 286.749 509.968 273.764C511.33 260.6 512.01 239.966 512.01 211.86V88.5867C512.01 68.1301 511.206 53.8105 509.597 45.6278C507.988 37.4452 504.522 30.9524 499.2 26.1495C493.878 21.3467 485.462 18.4116 473.951 17.3443V5.07031Z" fill="white"/>
<path d="M168.945 304.449L260.658 5.07031H337.89V17.3443H328.607C316.23 17.3443 308.123 18.8563 304.286 21.8803C300.449 24.7265 297.85 30.1519 296.489 38.1567C295.251 46.1615 294.632 65.195 294.632 95.2574V272.696C294.632 301.158 295.127 319.836 296.118 328.73C297.108 337.446 299.583 343.939 303.544 348.208C307.628 352.477 315.364 354.612 326.75 354.612H337.89V366.886H217.586V354.612H226.497C237.142 354.612 244.506 352.655 248.59 348.742C252.798 344.828 255.459 338.78 256.573 330.598C257.811 322.237 258.43 302.937 258.43 272.696V42.4259L158.734 366.886H150.008L49.5695 42.4259V254.285C49.5695 283.281 50.1884 303.026 51.4261 313.521C52.6637 324.016 56.5006 333.266 62.9366 341.271C69.3726 349.098 78.4077 353.545 90.042 354.612V366.886H0V354.612C10.7679 353.722 19.4936 349.542 26.1772 342.071C32.9845 334.422 37.1307 325.083 38.616 314.054C40.1012 303.026 40.8438 282.569 40.8438 252.685V95.2574C40.8438 66.4402 40.225 47.8514 38.9873 39.4908C37.8733 31.1303 35.398 25.3491 31.5611 22.1472C27.848 18.9452 19.6174 17.3443 6.86918 17.3443H0V5.07031H76.6749L168.945 304.449Z" fill="white"/>
</svg>
